<svg width="69" height="69" viewBox="0 0 69 69" fill="none" xmlns="http://www.w3.org/2000/svg">
<path fill-rule="evenodd" clip-rule="evenodd" d="M22.1424 27.0033L33.5101 21.3673V10.7709C32.1892 10.5624 30.9931 9.9479 30.1314 9.03509L11.9194 18.39C12.136 18.9283 12.2536 19.5051 12.2536 20.1094C12.2536 20.6148 12.1731 21.0982 12.0184 21.5596L22.1424 27.0033ZM29.166 7.5684C28.9244 6.99763 28.8007 6.39286 28.8009 5.78311C28.8009 4.38235 29.4383 3.11342 30.4717 2.19605C31.5051 1.27869 32.9346 0.712891 34.5126 0.712891C36.0906 0.712891 37.5201 1.27869 38.5535 2.19605C39.0845 2.66679 39.5054 3.22602 39.7921 3.8416C40.0789 4.45718 40.2257 5.11699 40.2243 5.78311C40.2243 6.39835 40.1006 6.98612 39.8778 7.52995L58.1764 16.9233C58.3063 16.786 58.4363 16.6487 58.5786 16.5223C59.1089 16.051 59.7389 15.6774 60.4324 15.4228C61.1258 15.1683 61.8691 15.0379 62.6195 15.0392C64.1975 15.0392 65.627 15.605 66.6604 16.5223C67.1914 16.9931 67.6123 17.5523 67.899 18.1679C68.1858 18.7834 68.3326 19.4433 68.3312 20.1094C68.3312 21.5101 67.6939 22.7736 66.6604 23.6909C65.7722 24.4803 64.6146 24.9864 63.3683 25.1302V43.7576C64.6493 43.9059 65.7941 44.4278 66.6604 45.1968C67.6939 46.1142 68.3312 47.3831 68.3312 48.7784C68.3319 49.4444 68.1846 50.104 67.8978 50.7194C67.611 51.3348 67.1903 51.8939 66.6598 52.3649C66.1293 52.8358 65.4993 53.2092 64.8061 53.4638C64.1128 53.7184 63.3698 53.8492 62.6195 53.8486C61.7724 53.8498 60.9357 53.6832 60.1703 53.3611C59.4049 53.0389 58.7301 52.5693 58.1949 51.9864L39.8716 61.3908C40.0944 61.9346 40.2182 62.5224 40.2182 63.1376C40.2182 64.5384 39.5808 65.8073 38.5473 66.7247C38.017 67.196 37.3871 67.5696 36.6936 67.8242C36.0001 68.0787 35.2568 68.2091 34.5064 68.2078C32.9284 68.2078 31.499 67.642 30.4655 66.7247C29.4321 65.8073 28.7947 64.5384 28.7947 63.1376C28.7947 62.5114 28.9247 61.9071 29.1598 61.3523L10.9541 52.0084C10.4185 52.5868 9.7448 53.0525 8.98177 53.3717C8.21874 53.6909 7.38537 53.8556 6.54186 53.8541C4.96387 53.8541 3.53439 53.2883 2.50095 52.3709C1.47371 51.4536 0.836323 50.1846 0.836323 48.7839C0.836323 47.3831 1.47371 46.1197 2.50714 45.2023C3.38523 44.4221 4.52566 43.9168 5.75596 43.7631V25.1247C4.52482 24.9733 3.38356 24.4678 2.50714 23.6855C1.97581 23.2161 1.55457 22.6579 1.26778 22.0432C0.980994 21.4284 0.834348 20.7693 0.836323 20.1039C0.836323 18.7031 1.47371 17.4342 2.50714 16.5168C3.03744 16.0455 3.66742 15.6719 4.36089 15.4173C5.05436 15.1628 5.79764 15.0324 6.54805 15.0337C7.39667 15.0323 8.23491 15.1993 9.0015 15.5225C9.76808 15.8456 10.4436 16.3167 10.9788 16.9013L29.166 7.5684ZM38.9186 9.00213C38.0513 9.94084 36.8321 10.5707 35.4842 10.7764V21.3673L46.8272 27.2011L57.2543 21.8507C57.0254 21.3069 56.9078 20.7136 56.9078 20.1039C56.9078 19.5106 57.0254 18.9338 57.2358 18.4065L38.9186 9.00213ZM61.6232 25.0972C60.469 24.919 59.4054 24.4277 58.5786 23.6909C58.461 23.5866 58.3496 23.4822 58.2444 23.3668L47.8359 28.7062V40.1211L58.2878 45.477C58.3806 45.3836 58.4734 45.2902 58.5724 45.2023C59.4 44.4665 60.4633 43.9754 61.617 43.7961V25.0972H61.6232ZM57.2481 50.5142C57.0254 49.9759 56.9078 49.3936 56.9078 48.7894C56.9078 48.1522 57.0377 47.5424 57.2853 46.9766L47.1737 41.7965L35.4842 47.8281V58.1498C36.8321 58.3555 38.0513 58.9854 38.9186 59.9241L57.2481 50.5142ZM30.1314 59.8856C30.9931 58.9728 32.1892 58.3583 33.5101 58.1498V47.7786L21.7773 41.7361L11.8204 46.8393C12.0989 47.438 12.2598 48.0972 12.2598 48.7894C12.2598 49.4046 12.136 49.9924 11.9132 50.5362L30.1314 59.8856ZM7.49485 43.7851C8.68918 43.9609 9.75974 44.4717 10.5828 45.2023C10.6447 45.2572 10.7003 45.3122 10.756 45.3671L20.8985 40.1705V28.3766L11.1335 23.1251C10.9664 23.3284 10.7808 23.5152 10.5828 23.6909C9.74373 24.4359 8.66471 24.9312 7.49485 25.1082V43.7851ZM6.55424 23.4218C6.57899 23.4218 6.60374 23.4163 6.6285 23.4163H6.678C7.62365 23.3899 8.5223 23.0441 9.19042 22.4495C9.538 22.1418 9.81368 21.7762 10.0017 21.3737C10.1896 20.9711 10.2862 20.5396 10.2857 20.1039C10.2857 19.1865 9.86494 18.357 9.19042 17.7583C8.51591 17.1595 7.58148 16.786 6.54805 16.786C5.51462 16.786 4.5802 17.1595 3.90568 17.7583C3.5581 18.066 3.28242 18.4316 3.09445 18.8341C2.90649 19.2366 2.80994 19.6681 2.81037 20.1039C2.81037 21.0212 3.23116 21.8507 3.90568 22.4495C4.25317 22.7585 4.66607 23.0035 5.12061 23.1704C5.57515 23.3372 6.06236 23.4227 6.55424 23.4218ZM37.1488 60.803C36.8022 60.4945 36.3903 60.2497 35.9369 60.0829C35.4834 59.916 34.9973 59.8303 34.5064 59.8307C33.473 59.8307 32.5386 60.2042 31.8641 60.803C31.1895 61.4018 30.7687 62.2312 30.7687 63.1486C30.7687 64.066 31.1895 64.8954 31.8641 65.4942C32.5386 66.0929 33.473 66.4665 34.5064 66.4665C35.5399 66.4665 36.4743 66.0929 37.1488 65.4942C37.8233 64.8954 38.2441 64.066 38.2441 63.1486C38.2441 62.2312 37.8295 61.4018 37.1488 60.803ZM37.1488 3.43752C36.8022 3.12898 36.3903 2.88425 35.9369 2.7174C35.4834 2.55054 34.9973 2.46485 34.5064 2.46522C33.473 2.46522 32.5386 2.83876 31.8641 3.43752C31.1895 4.03628 30.7687 4.86575 30.7687 5.78311C30.7687 6.70048 31.1895 7.52995 31.8641 8.12871C32.2107 8.43725 32.6225 8.68197 33.076 8.84883C33.5294 9.01568 34.0156 9.10138 34.5064 9.10101C35.5399 9.10101 36.4743 8.72747 37.1488 8.12871C37.4964 7.82102 37.7721 7.45542 37.96 7.0529C38.148 6.65037 38.2445 6.21885 38.2441 5.78311C38.2441 4.86575 37.8295 4.03628 37.1488 3.43752ZM65.2557 46.4438C64.9091 46.1352 64.4972 45.8905 64.0438 45.7237C63.5903 45.5568 63.1042 45.4711 62.6133 45.4715C61.5799 45.4715 60.6455 45.845 59.971 46.4438C59.6234 46.7515 59.3477 47.1171 59.1597 47.5196C58.9718 47.9221 58.8752 48.3536 58.8756 48.7894C58.8756 49.7067 59.2964 50.5362 59.971 51.135C60.3176 51.4435 60.7294 51.6882 61.1829 51.8551C61.6363 52.0219 62.1225 52.1076 62.6133 52.1073C63.6468 52.1073 64.5812 51.7337 65.2557 51.135C65.6033 50.8273 65.879 50.4617 66.0669 50.0592C66.2549 49.6566 66.3514 49.2251 66.351 48.7894C66.351 47.872 65.9364 47.0425 65.2557 46.4438ZM9.19042 46.4438C8.51591 45.845 7.58148 45.4715 6.54805 45.4715C5.51462 45.4715 4.5802 45.845 3.90568 46.4438C3.5581 46.7515 3.28242 47.1171 3.09445 47.5196C2.90649 47.9221 2.80994 48.3536 2.81037 48.7894C2.81037 49.7067 3.23116 50.5362 3.90568 51.135C4.5802 51.7337 5.51462 52.1073 6.54805 52.1073C7.58148 52.1073 8.51591 51.7337 9.19042 51.135C9.538 50.8273 9.81368 50.4617 10.0017 50.0592C10.1896 49.6566 10.2862 49.2251 10.2857 48.7894C10.2837 47.9098 9.89001 47.0666 9.19042 46.4438ZM59.2841 21.6035C59.3336 21.6475 59.3707 21.7024 59.4078 21.7573C59.445 21.8123 59.4697 21.8672 59.4945 21.9276C59.6368 22.1144 59.7977 22.2902 59.971 22.4495C60.3176 22.758 60.7294 23.0027 61.1829 23.1696C61.6363 23.3365 62.1225 23.4222 62.6133 23.4218C63.6468 23.4218 64.5812 23.0482 65.2557 22.4495C65.6033 22.1418 65.879 21.7762 66.0669 21.3737C66.2549 20.9711 66.3514 20.5396 66.351 20.1039C66.351 19.1865 65.9302 18.357 65.2557 17.7583C64.9091 17.4497 64.4972 17.205 64.0438 17.0382C63.5903 16.8713 63.1042 16.7856 62.6133 16.786C61.5799 16.786 60.6455 17.1595 59.971 17.7583C59.6234 18.066 59.3477 18.4316 59.1597 18.8341C58.9718 19.2366 58.8752 19.6681 58.8756 20.1039C58.8818 20.6477 59.0303 21.1531 59.2841 21.6035ZM22.7488 39.9838C22.8894 40.118 22.982 40.2862 23.0149 40.4672L33.6153 45.9988V35.0783L22.7488 29.338V39.9838ZM45.9918 29.4863L35.4656 35.0838V46.0098L45.9918 40.4891V29.4863ZM34.4941 22.6802L24.2216 28.1349L34.5497 33.6556L44.5809 28.2503L34.4941 22.6802Z" fill="url(#paint0_linear_163_716)"/>
<defs>
<linearGradient id="paint0_linear_163_716" x1="33.7294" y1="4.02913" x2="34.5338" y2="64.5512" gradientUnits="userSpaceOnUse">
<stop stop-color="#17D1E5"/>
<stop offset="1" stop-color="#B44AE8"/>
</linearGradient>
</defs>
</svg>
