<svg width="69" height="68" viewBox="0 0 69 68" fill="none" xmlns="http://www.w3.org/2000/svg">
<path fill-rule="evenodd" clip-rule="evenodd" d="M27.529 43.3157L25.5311 45.2177V41.4082L27.5233 43.3157H27.529ZM25.1802 26.1435L25.1462 26.2785C25.9767 26.8911 26.7056 27.6197 27.3082 28.4399C40.9652 28.4399 21.9258 28.4399 41.4576 28.4399C42.0699 27.6124 42.8059 26.8751 43.6422 26.2515C43.6002 26.1636 43.5698 26.071 43.5517 25.9759C43.4951 25.722 43.4159 25.4356 43.331 25.1816C43.2461 24.9277 43.1555 24.6953 43.0706 24.49L43.031 24.4143C42.7897 23.8735 42.498 23.3545 42.1594 22.8635C41.8249 22.3921 41.446 21.9508 41.0274 21.5451C40.6059 21.1441 40.1454 20.7823 39.6521 20.4644C39.1379 20.1412 38.5942 19.8627 38.0278 19.6323C37.4605 19.394 36.8687 19.2129 36.2619 19.0919C35.0171 18.8614 33.7374 18.8614 32.4926 19.0919C31.912 19.2009 31.3435 19.3619 30.7946 19.5728L30.7154 19.6107C30.149 19.8411 29.6053 20.1195 29.0911 20.4428C28.5978 20.7607 28.1373 21.1225 27.7157 21.5235C27.2972 21.9292 26.9183 22.3705 26.5838 22.8419C26.2452 23.3329 25.9535 23.8519 25.7122 24.3927C25.5836 24.6684 25.474 24.9518 25.3839 25.2411C25.2926 25.5307 25.217 25.8247 25.1575 26.1218L25.1802 26.1435ZM22.6446 25.0141C22.6899 24.8466 22.7408 24.6791 22.7974 24.5062C22.9163 24.128 23.0578 23.7605 23.2163 23.3931C23.5291 22.7055 23.9081 22.0471 24.3482 21.4262C24.7748 20.8125 25.2639 20.2406 25.8084 19.7187C26.355 19.1989 26.9541 18.7319 27.5969 18.3246C28.2472 17.9044 28.9368 17.5426 29.657 17.2439L29.7702 17.2007C30.4781 16.9187 31.2137 16.7051 31.9662 16.5631C33.5655 16.2603 35.2116 16.2603 36.8109 16.5631C37.6011 16.7119 38.373 16.9382 39.1145 17.2385C39.8347 17.5372 40.5243 17.899 41.1746 18.3192C41.8174 18.7265 42.4165 19.1935 42.9631 19.7133C43.5112 20.233 44.0041 20.8031 44.4346 21.4154C44.8725 22.0376 45.2513 22.6958 45.5666 23.3823L45.6062 23.4903C45.7477 23.8146 45.8665 24.1172 45.9571 24.3981C46.0193 24.5819 46.0703 24.771 46.1269 24.9385C50.8584 23.3715 56.371 26.1435 60.0102 29.9313V25.9327C60.0121 25.7817 59.9852 25.6315 59.931 25.4896C59.8559 25.3376 59.7545 25.1987 59.631 25.079C59.5185 24.9627 59.3805 24.8715 59.227 24.8117C59.0734 24.752 58.908 24.7251 58.7424 24.7331H54.7353C54.4126 24.734 54.1 24.6261 53.8525 24.4283C53.6051 24.2306 53.4387 23.9559 53.3826 23.6525C53.2921 23.3012 53.1846 22.9392 53.0657 22.5718C52.9468 22.2043 52.8054 21.8099 52.6356 21.3938V21.329C52.4827 20.9453 52.3243 20.5833 52.1658 20.2483C52.0073 19.9133 51.8036 19.5296 51.5998 19.1676C51.4604 18.9224 51.4071 18.6409 51.4479 18.3646C51.4887 18.0884 51.6213 17.8319 51.8262 17.633L54.9617 14.58C55.0786 14.4783 55.1729 14.3552 55.239 14.218C55.2988 14.0793 55.3278 13.9303 55.3239 13.7803C55.3276 13.6264 55.2967 13.4735 55.2334 13.3318C55.162 13.1733 55.0581 13.0299 54.9278 12.9104L51.0905 9.25221C50.9662 9.12909 50.8182 9.03002 50.6547 8.96042C50.5037 8.90263 50.3419 8.87504 50.1792 8.87937C50.0148 8.87565 49.8513 8.9032 49.6982 8.96042C49.5425 9.02731 49.4021 9.12278 49.285 9.2414L46.4212 11.9431C46.1963 12.1591 45.8989 12.2927 45.5812 12.3203C45.2635 12.348 44.9458 12.268 44.6836 12.0944C44.3554 11.8891 43.9988 11.6946 43.6309 11.5055C43.263 11.3163 42.8499 11.1164 42.499 10.9651C42.1481 10.8138 41.7066 10.6355 41.2934 10.4842C40.8803 10.3329 40.5067 10.2032 40.0596 10.0627C39.7854 9.97652 39.5465 9.81009 39.3769 9.58702C39.2072 9.36396 39.1154 9.09559 39.1145 8.81993V4.65386C39.1176 4.48815 39.0889 4.3233 39.0296 4.16754L39.0013 4.10811C38.9376 3.98924 38.8534 3.88146 38.7522 3.7893C38.6342 3.67541 38.4929 3.58593 38.3371 3.52644C38.1813 3.46694 38.0144 3.4387 37.8467 3.44348H32.3228C32.1621 3.44076 32.0025 3.4683 31.853 3.52453C31.6931 3.59281 31.5474 3.68798 31.4229 3.80551C31.3096 3.91413 31.2193 4.04254 31.1569 4.18375V4.22158C31.1045 4.36008 31.0796 4.50666 31.0833 4.65386V8.47411C31.0829 8.78126 30.9692 9.07845 30.7622 9.3136C30.5552 9.54874 30.2682 9.70683 29.9513 9.76013C29.5155 9.8628 29.1137 9.96547 28.7515 10.0681C28.3892 10.1708 27.9308 10.3275 27.5403 10.4734H27.4667C27.1215 10.6031 26.7479 10.7544 26.3348 10.9273C25.9216 11.1002 25.5594 11.2839 25.2028 11.4676C24.946 11.6007 24.6512 11.6516 24.3618 11.6127C24.0724 11.5738 23.8038 11.4472 23.5955 11.2515L20.4373 8.26337C20.3284 8.15197 20.1976 8.06202 20.0525 7.9986C19.9096 7.94017 19.755 7.9125 19.5997 7.91755C19.4384 7.91409 19.2783 7.94356 19.1299 8.00401C18.9638 8.07213 18.8137 8.17135 18.6885 8.29579C17.3924 9.47375 16.1189 10.7544 14.8512 11.9647C14.7241 12.0816 14.6222 12.2212 14.5512 12.3754C14.4907 12.5196 14.4618 12.6741 14.4663 12.8293C14.4624 12.9845 14.4913 13.1389 14.5512 13.2832C14.6197 13.4343 14.7198 13.5704 14.8455 13.6831L17.6754 16.4172C17.9006 16.6325 18.0398 16.9163 18.0688 17.2193C18.0977 17.5223 18.0146 17.8255 17.8338 18.0761C17.6188 18.3895 17.415 18.7299 17.2169 19.0811C17.0188 19.4323 16.8094 19.8322 16.651 20.1618C16.4925 20.4914 16.3057 20.9183 16.1416 21.3128C15.9774 21.7072 15.8529 22.0638 15.7058 22.4907C15.6155 22.7525 15.4412 22.9806 15.2075 23.1426C14.9739 23.3045 14.6928 23.3922 14.404 23.3931H10.0404C9.86682 23.39 9.69415 23.4175 9.53101 23.4741H9.46309C9.34207 23.5354 9.2314 23.6137 9.13482 23.7065C9.01782 23.8144 8.92366 23.9428 8.8575 24.0847C8.79768 24.2404 8.76889 24.4053 8.7726 24.571V29.807C12.3043 26.2245 17.9187 23.5228 22.6446 25.0141ZM6.89357 32.2115C6.3311 31.5485 6.02704 30.7197 6.03329 29.8664V24.6305C6.02892 24.1291 6.12697 23.6317 6.32194 23.1661C6.70606 22.2671 7.4376 21.5435 8.3651 21.1452L8.50093 21.0804C8.99151 20.8991 9.51444 20.811 10.0404 20.821H13.4362L13.5947 20.4158C13.7701 19.9889 13.9626 19.5566 14.1607 19.1243C14.3588 18.6921 14.5908 18.2544 14.8115 17.8599L14.9927 17.5519L12.9155 15.5635C12.5331 15.2107 12.229 14.788 12.0213 14.3207C11.8158 13.8555 11.71 13.3558 11.71 12.8509C11.71 12.3461 11.8158 11.8463 12.0213 11.3812C12.2287 10.9179 12.5285 10.4976 12.9042 10.1438L16.7528 6.45861C17.1276 6.0957 17.5713 5.80414 18.0602 5.59946C18.5475 5.40331 19.0709 5.30226 19.5997 5.30227C20.1246 5.29884 20.6446 5.39934 21.1268 5.59744C21.609 5.79553 22.043 6.08692 22.4013 6.45321L24.8406 8.74428L25.2028 8.58218C25.5877 8.40927 26.0122 8.24176 26.4763 8.06885L26.5498 8.04183C27.0083 7.86892 27.4724 7.71222 27.9478 7.57713L28.3327 7.46906V4.65386C28.3296 4.17515 28.4218 3.70024 28.6043 3.25436V3.1733C28.814 2.71468 29.1159 2.29978 29.4929 1.95212V1.9251C29.876 1.57389 30.328 1.29844 30.8229 1.11458C31.2974 0.923141 31.8077 0.82571 32.3228 0.828199H37.8127C38.339 0.819412 38.8616 0.913644 39.3483 1.10509C39.835 1.29653 40.2755 1.58112 40.6426 1.94131C40.9829 2.26398 41.2591 2.64297 41.4576 3.05983L41.5198 3.18952C41.7148 3.65508 41.8129 4.15247 41.8085 4.65386V7.89594L42.233 8.05264C42.6801 8.21474 43.1329 8.39846 43.5913 8.59298C44.0497 8.78751 44.4969 9.00365 44.91 9.21438L45.2326 9.38729L47.3211 7.40422C47.6918 7.04045 48.1342 6.7503 48.6228 6.55047C49.11 6.35431 49.6335 6.25324 50.1623 6.25324C50.691 6.25324 51.2145 6.35431 51.7017 6.55047C52.1882 6.7462 52.6289 7.03279 52.9978 7.39341L56.869 11.0948C57.2411 11.4483 57.5389 11.8665 57.7463 12.3268C57.9518 12.792 58.0576 13.2917 58.0576 13.7965C58.0651 14.3022 57.9618 14.8038 57.7542 15.2691C57.5465 15.7344 57.2393 16.1531 56.8521 16.4983L54.4467 18.8272L54.6278 19.1892C54.8259 19.6053 55.007 20.0159 55.1938 20.4266V20.486C55.3636 20.9075 55.522 21.356 55.6748 21.8261L55.7824 22.1611H58.7368C59.2638 22.1543 59.7867 22.2506 60.2734 22.4438C60.76 22.6371 61.2001 22.9234 61.5666 23.285V23.312C61.9286 23.6648 62.2185 24.0789 62.4212 24.5332C62.6175 24.9892 62.7175 25.4776 62.7156 25.9705V31.2119C62.7188 31.7132 62.6208 32.2104 62.4269 32.6762C62.3873 32.7627 62.342 32.8546 62.2967 32.941L62.4269 33.1409C66.5642 40.0142 68.6187 50.1781 68.0244 57.4566C67.9132 59.6333 67.3857 61.7723 66.468 63.7678C65.5115 65.6482 64.1361 66.8802 62.2911 67.2044C59.9366 67.6205 56.9992 66.4371 53.4619 63.0005C53.0091 62.5574 52.5337 62.1143 52.0526 61.655C50.2773 60.0812 48.6522 58.3598 47.1966 56.5109H21.5693C20.1162 58.3684 18.4889 60.0957 16.7076 61.6713C16.2321 62.1197 15.7567 62.5628 15.3096 63.0005C11.7723 66.4371 8.83486 67.6205 6.48041 67.2044C4.63533 66.8802 3.2487 65.6482 2.29786 63.7678C1.37167 61.7536 0.840299 59.5943 0.730116 57.3971C0.113204 49.8323 2.3771 39.0686 6.89357 32.2115ZM22.1749 36.7234V40.2141H25.831C29.9796 40.2141 29.9796 46.1957 25.831 46.1957H22.1635V49.6864C22.1635 53.6471 15.8982 53.6471 15.8982 49.6864V46.2173H12.2364C8.09343 46.2173 8.09343 40.2357 12.2364 40.2357H15.9095V36.7234C15.9095 32.7627 22.1749 32.7627 22.1749 36.7234ZM50.7905 33.6759C51.1955 34.0618 51.4715 34.5538 51.5835 35.0896C51.6955 35.6253 51.6385 36.1808 51.4198 36.6856C51.2011 37.1904 50.8304 37.622 50.3547 37.9256C49.8789 38.2292 49.3196 38.3913 48.7473 38.3913C48.1751 38.3913 47.6157 38.2292 47.14 37.9256C46.6643 37.622 46.2936 37.1904 46.0748 36.6856C45.8561 36.1808 45.7991 35.6253 45.9112 35.0896C46.0232 34.5538 46.2992 34.0618 46.7042 33.6759C46.9719 33.4187 47.2902 33.2147 47.6409 33.0754C47.9915 32.9361 48.3675 32.8645 48.7473 32.8645C49.1271 32.8645 49.5031 32.9361 49.8538 33.0754C50.2044 33.2147 50.5228 33.4187 50.7905 33.6759ZM50.7905 45.7094C51.1955 46.0954 51.4715 46.5874 51.5835 47.1231C51.6955 47.6589 51.6385 48.2143 51.4198 48.7191C51.2011 49.224 50.8304 49.6555 50.3547 49.9591C49.8789 50.2628 49.3196 50.4248 48.7473 50.4248C48.1751 50.4248 47.6157 50.2628 47.14 49.9591C46.6643 49.6555 46.2936 49.224 46.0748 48.7191C45.8561 48.2143 45.7991 47.6589 45.9112 47.1231C46.0232 46.5874 46.2992 46.0954 46.7042 45.7094C46.9719 45.4523 47.2902 45.2482 47.6409 45.1089C47.9915 44.9697 48.3675 44.898 48.7473 44.898C49.1271 44.898 49.5031 44.9697 49.8538 45.1089C50.2044 45.2482 50.5228 45.4523 50.7905 45.7094ZM57.7237 39.4306C58.1287 39.8165 58.4046 40.3085 58.5167 40.8443C58.6287 41.38 58.5717 41.9355 58.353 42.4403C58.1342 42.9451 57.7636 43.3767 57.2878 43.6803C56.8121 43.9839 56.2527 44.146 55.6805 44.146C55.1083 44.146 54.5489 43.9839 54.0732 43.6803C53.5975 43.3767 53.2268 42.9451 53.008 42.4403C52.7893 41.9355 52.7323 41.38 52.8443 40.8443C52.9564 40.3085 53.2323 39.8165 53.6373 39.4306C53.9051 39.1734 54.2234 38.9694 54.5741 38.8301C54.9247 38.6908 55.3007 38.6192 55.6805 38.6192C56.0603 38.6192 56.4363 38.6908 56.7869 38.8301C57.1376 38.9694 57.4559 39.1734 57.7237 39.4306ZM43.8517 39.4306C44.2567 39.8165 44.5326 40.3085 44.6447 40.8443C44.7567 41.38 44.6997 41.9355 44.481 42.4403C44.2622 42.9451 43.8915 43.3767 43.4158 43.6803C42.9401 43.9839 42.3807 44.146 41.8085 44.146C41.2363 44.146 40.6769 43.9839 40.2012 43.6803C39.7254 43.3767 39.3547 42.9451 39.136 42.4403C38.9173 41.9355 38.8603 41.38 38.9723 40.8443C39.0843 40.3085 39.3603 39.8165 39.7653 39.4306C40.0331 39.1734 40.3514 38.9694 40.702 38.8301C41.0527 38.6908 41.4287 38.6192 41.8085 38.6192C42.1883 38.6192 42.5643 38.6908 42.9149 38.8301C43.2656 38.9694 43.5839 39.1734 43.8517 39.4306ZM19.1299 35.2969L21.1278 37.1989H17.166L19.1582 35.2969H19.1299ZM10.7309 43.3157L12.7288 45.2177V41.4082L10.7309 43.3157ZM19.1299 51.329L21.1278 49.427H17.166L19.1582 51.329H19.1299Z" fill="url(#paint0_linear_163_714)"/>
<defs>
<linearGradient id="paint0_linear_163_714" x1="33.5234" y1="4.09286" x2="34.3032" y2="63.6841" gradientUnits="userSpaceOnUse">
<stop stop-color="#17D1E5"/>
<stop offset="1" stop-color="#B44AE8"/>
</linearGradient>
</defs>
</svg>
