<svg width="83" height="86" viewBox="0 0 83 86" fill="none" xmlns="http://www.w3.org/2000/svg">
<path d="M60.2977 72.2703C59.9744 72.1396 59.6236 72.0639 59.2521 72.0639C58.8807 72.0639 58.5298 72.1396 58.2065 72.2703C57.8832 72.4079 57.5874 72.6005 57.3466 72.8482L57.326 72.8619C57.1884 72.9995 57.0577 73.1577 56.9545 73.3297C56.8995 73.4191 56.8445 73.5154 56.7963 73.6186H52.4557V69.8489C51.7884 70.1585 51.0936 70.3923 50.3851 70.5368C50.2613 70.5643 50.1443 70.585 50.0205 70.6056V74.8293C50.0205 75.1664 50.1581 75.4691 50.3782 75.6892C50.5983 75.9093 50.901 76.0469 51.2381 76.0469H56.8376C56.8789 76.1294 56.927 76.212 56.9821 76.2945C57.0784 76.439 57.1884 76.5766 57.3123 76.7004L57.3329 76.721C57.5805 76.9687 57.8832 77.1751 58.2203 77.3126C58.5436 77.4433 58.8944 77.519 59.2659 77.519C59.6236 77.519 59.9744 77.4502 60.2909 77.3195L60.3115 77.3126C60.6486 77.1751 60.9444 76.9687 61.1989 76.721C61.4465 76.4734 61.6529 76.1707 61.7905 75.8337C61.9212 75.5103 61.9969 75.1595 61.9969 74.788C61.9969 74.4235 61.9212 74.0726 61.7905 73.7424C61.6529 73.4054 61.4465 73.1027 61.1989 72.855C60.9375 72.6143 60.6348 72.4079 60.2977 72.2703ZM40.4518 46.474H35.3613L34.6321 48.8679H30.0507L35.5195 34.3394H40.4311L45.8793 48.8679H41.181L40.4518 46.474ZM39.5025 43.3234L37.9134 38.1022L36.3175 43.3234H39.5025ZM47.1451 34.3325H51.6508V48.861H47.1451V34.3325ZM43.7124 19.4394C42.9695 19.976 42.2816 20.6983 41.6831 21.6338C41.6556 21.682 41.6143 21.7233 41.5662 21.7508C41.3804 21.8677 41.1328 21.8127 41.0159 21.6338C40.4174 20.6983 39.7295 19.976 38.9865 19.4394C38.1886 18.8616 37.3287 18.497 36.4413 18.3182H36.4275C35.5608 18.1393 34.6734 18.1393 33.8204 18.2906C32.9192 18.4489 32.0456 18.7791 31.2614 19.2331C30.4841 19.6871 29.7824 20.2718 29.1977 20.9459C28.6336 21.5995 28.1796 22.3493 27.8838 23.1541C27.8356 23.2779 27.7944 23.4086 27.7531 23.5462C27.7187 23.67 27.6774 23.8076 27.6499 23.9452C27.6155 24.1241 27.4642 24.2548 27.2716 24.2616C26.3498 24.3992 25.4349 24.7363 24.5819 25.2385C23.7151 25.7544 22.9103 26.456 22.2155 27.2953C21.5276 28.1345 20.9497 29.1251 20.537 30.2257C20.1518 31.2576 19.9179 32.3926 19.8697 33.5965C19.8629 33.7547 19.8629 33.906 19.8629 34.0642C19.8629 34.2087 19.8697 34.36 19.8697 34.5183C19.8766 34.649 19.8216 34.7865 19.7046 34.8691C19.1406 35.2749 18.6315 35.6946 18.1775 36.1279C17.7166 36.5751 17.3107 37.036 16.9599 37.5106C16.389 38.288 15.9693 39.0997 15.6873 39.9183C15.3915 40.7713 15.247 41.6449 15.2333 42.5048C15.2264 43.3303 15.3365 44.1489 15.5704 44.94C15.8042 45.7448 16.162 46.529 16.6228 47.2582C16.8842 47.6778 17.18 48.0906 17.5034 48.4758C17.8336 48.8679 18.1913 49.2394 18.5765 49.5902C18.6728 49.6796 18.7278 49.8241 18.7003 49.9617C18.5902 50.4845 18.5352 51.0004 18.5146 51.5094C18.5008 52.0322 18.5283 52.5482 18.5971 53.0503C18.7278 53.9721 18.9961 54.8526 19.3745 55.6644C19.7734 56.5311 20.2962 57.3222 20.9016 58.017C21.4863 58.698 22.1536 59.2896 22.869 59.778C23.5913 60.2733 24.3549 60.6585 25.1391 60.9268C25.4899 61.0438 25.8476 61.1401 26.2122 61.2089C26.5562 61.2776 26.9001 61.3189 27.2372 61.3327C27.4229 61.3258 27.5949 61.4565 27.6362 61.6491C27.815 62.4677 28.1452 63.2382 28.5992 63.9329C29.0739 64.6621 29.6723 65.3087 30.3602 65.8453C31.227 66.5195 32.2451 67.0285 33.3182 67.2968C34.3294 67.5513 35.3957 67.5995 36.4413 67.3793C37.3769 67.1867 38.2849 66.7877 39.1241 66.1549C39.8946 65.5702 40.61 64.7859 41.2085 63.7678C41.2429 63.7059 41.2979 63.6578 41.3667 63.6234C41.5593 63.5202 41.8001 63.5959 41.9032 63.7885C42.3985 64.7103 43.0039 65.4463 43.678 66.0035C44.4072 66.602 45.2121 67.0079 46.0582 67.2418C47.1382 67.5376 48.2663 67.5376 49.3601 67.3105C50.5295 67.0698 51.6577 66.5607 52.6276 65.8591C53.3912 65.3156 54.0654 64.6484 54.6019 63.8917C55.111 63.1831 55.4893 62.392 55.7094 61.5597C55.737 61.4015 55.8608 61.2639 56.0328 61.2364C57.044 61.0575 58.0414 60.6379 58.9563 60.0119C59.8713 59.3859 60.7036 58.5604 61.3846 57.5767C62.0106 56.6687 62.5128 55.6231 62.8361 54.4812C63.1388 53.4149 63.2832 52.2592 63.2351 51.0417C63.2213 50.9041 63.2832 50.7665 63.4071 50.684C63.9987 50.2781 64.5215 49.8516 64.9892 49.4182C65.4639 48.9642 65.8835 48.4964 66.2412 48.008C66.7915 47.2651 67.1974 46.4946 67.4794 45.7035C67.7684 44.8849 67.9197 44.0526 67.9472 43.2202C67.9679 42.4154 67.8715 41.6174 67.6652 40.8332C67.4588 40.0421 67.1355 39.2785 66.7159 38.5562L66.7021 38.5425C66.427 38.0678 66.1036 37.6138 65.7459 37.1736C65.3882 36.7333 64.9824 36.3206 64.549 35.9285C64.4458 35.839 64.3908 35.6946 64.4183 35.5501C64.5146 35.0755 64.5765 34.6008 64.5971 34.133C64.6178 33.6584 64.604 33.1906 64.5559 32.7297C64.4527 31.7735 64.1982 30.8655 63.8267 30.0194C63.4346 29.1251 62.9118 28.2996 62.2995 27.5773C61.708 26.8757 61.0269 26.2634 60.2977 25.7544C59.5686 25.2453 58.7912 24.8463 58.0002 24.5781L57.9795 24.5712C57.5599 24.4267 57.1334 24.3235 56.7138 24.2548H56.7C56.2873 24.186 55.8745 24.1584 55.4687 24.1653C55.2829 24.1791 55.1041 24.0553 55.0559 23.8626C54.9871 23.5806 54.8977 23.3054 54.7945 23.0372C54.6845 22.762 54.5606 22.4937 54.4162 22.2254C54.0447 21.5375 53.5563 20.9047 52.9854 20.3612C52.4006 19.804 51.7334 19.3294 51.018 18.9648C50.2819 18.5933 49.477 18.3319 48.6516 18.215C47.8674 18.1049 47.0625 18.1187 46.2714 18.2838C45.384 18.497 44.5104 18.8616 43.7124 19.4394ZM54.9596 27.1852C55.0078 27.0339 55.1454 26.9169 55.3173 26.9032C55.6063 26.8825 55.9021 26.8963 56.1979 26.9445C56.5005 26.9926 56.8032 27.0683 57.1059 27.1715C57.6768 27.3641 58.2478 27.6599 58.7775 28.0313C59.3003 28.3959 59.7956 28.8431 60.2221 29.3521L60.229 29.3659C60.6761 29.8956 61.0544 30.4871 61.3365 31.1338C61.6048 31.7391 61.7836 32.3858 61.8593 33.0668C61.9074 33.5208 61.9074 33.9954 61.8524 34.477C61.8043 34.9241 61.7011 35.385 61.5428 35.8459L61.536 35.8734C61.4397 36.1623 61.4465 36.465 61.536 36.7333C61.6323 37.0085 61.8111 37.2561 62.0657 37.4212L62.0863 37.435C62.5678 37.7927 62.9943 38.1848 63.3658 38.5975C63.751 39.0171 64.0812 39.4711 64.3564 39.9389C64.659 40.4548 64.8929 40.9914 65.0374 41.5417C65.1887 42.0852 65.2575 42.6355 65.2369 43.1789C65.2231 43.743 65.1131 44.3071 64.9136 44.8643C64.721 45.394 64.4389 45.9168 64.0675 46.4258L64.0606 46.4327C63.7235 46.8936 63.297 47.3476 62.7948 47.781C62.3133 48.1937 61.7561 48.5859 61.1164 48.9642L61.0957 48.978C60.8412 49.1224 60.6555 49.3425 60.5454 49.5971C60.4353 49.8516 60.4009 50.1336 60.456 50.4088L60.4628 50.4638C60.5935 51.5163 60.5316 52.5207 60.3184 53.4356C60.0845 54.433 59.6786 55.3273 59.149 56.0909C58.7431 56.6756 58.2753 57.1777 57.7731 57.5767C57.2572 57.9895 56.7 58.2921 56.1291 58.4779H56.1222C55.9158 58.5398 55.6888 58.4229 55.6269 58.2165C54.8496 55.6781 53.5082 54.8595 51.2381 53.6901L51.1899 53.6626C50.8735 53.5112 50.5295 53.4975 50.22 53.5938C49.9104 53.6901 49.6421 53.9033 49.4839 54.2129L49.4633 54.2542C49.312 54.5706 49.2982 54.9146 49.3945 55.2241C49.4977 55.5337 49.7178 55.8088 50.0343 55.9739C51.9329 56.9439 53.3362 57.6799 53.3155 60.0601C53.3087 60.7686 53.0885 61.4565 52.7171 62.0756C52.325 62.7291 51.7609 63.3138 51.1074 63.7885C50.4401 64.27 49.6903 64.6208 48.9198 64.7928C48.1838 64.9648 47.4271 64.9717 46.7186 64.7791C45.5216 64.4489 44.7443 63.6509 44.2215 62.681C43.7262 61.7592 43.451 60.686 43.2515 59.7092C43.2378 59.6748 43.2378 59.6336 43.2378 59.5992C43.2378 59.1039 42.8526 58.7806 42.3504 58.6361C42.1303 58.5673 41.8895 58.5398 41.6556 58.5398C41.4148 58.5398 41.1809 58.5742 40.9608 58.6361C40.4655 58.7874 40.0803 59.1108 40.0803 59.5992C40.0803 59.6336 40.0734 59.6611 40.0665 59.6955C39.6813 61.2226 39.1241 62.3714 38.4706 63.1969C37.707 64.1668 36.8128 64.6965 35.891 64.8891C35.2168 65.0267 34.5221 64.9923 33.8617 64.8203C33.1669 64.6346 32.5065 64.2975 31.9287 63.8573C31.3577 63.4101 30.8831 62.8667 30.5529 62.2545C30.2364 61.6697 30.0507 61.0231 30.0507 60.3627C30.0507 57.8588 31.5641 57.0195 33.5659 55.9946C33.8823 55.8295 34.1024 55.5543 34.2056 55.2447C34.3088 54.9283 34.2882 54.5775 34.13 54.2542C33.9649 53.9377 33.6897 53.7176 33.3801 53.6144C33.0706 53.5181 32.7266 53.5319 32.4102 53.6832L32.3896 53.6901C30.0301 54.8939 28.6199 55.7744 27.7737 58.3953C27.7256 58.5673 27.5605 58.698 27.3748 58.6911C27.1409 58.6843 26.907 58.6567 26.6662 58.6086C26.4323 58.5604 26.1984 58.4985 25.9783 58.416C25.4211 58.2234 24.8639 57.9413 24.3411 57.5836C23.8252 57.2259 23.3436 56.7994 22.9171 56.3041C22.4769 55.7951 22.0985 55.2241 21.8096 54.5981C21.5345 54.0134 21.3419 53.3874 21.2455 52.7339V52.7201C21.1768 52.2386 21.163 51.7364 21.218 51.2205C21.2662 50.739 21.3694 50.2368 21.5413 49.7415L21.5482 49.7209C21.6445 49.4388 21.6377 49.1431 21.5551 48.8816L21.5482 48.8679C21.4588 48.5927 21.2799 48.352 21.0323 48.18L21.0185 48.1662C20.5783 47.836 20.1793 47.4852 19.8285 47.1C19.4708 46.7148 19.1543 46.302 18.8929 45.8755C18.5765 45.3596 18.3288 44.8093 18.1637 44.2452C18.0055 43.6949 17.923 43.1308 17.9299 42.5529C17.9367 41.9682 18.0399 41.3698 18.2463 40.785C18.4458 40.2278 18.7347 39.6706 19.1337 39.1272C19.4708 38.6663 19.8835 38.2123 20.3788 37.7789C20.8534 37.3593 21.39 36.9603 22.0091 36.582C22.2361 36.4444 22.4012 36.2518 22.5113 36.0316L22.5182 36.011C22.6282 35.784 22.6695 35.5295 22.6351 35.2749C22.6282 35.2474 22.6282 35.2199 22.6282 35.1924V35.1786C22.5938 34.9379 22.5732 34.6971 22.5594 34.4632C22.5457 34.2087 22.5457 33.9542 22.5526 33.7065C22.587 32.8054 22.7589 31.9593 23.041 31.1957C23.3436 30.3771 23.7701 29.641 24.2792 29.015C24.6988 28.4991 25.1803 28.0657 25.6825 27.7287C26.1847 27.3916 26.7144 27.1508 27.2578 27.0132C27.4642 26.9513 27.6912 27.0683 27.7531 27.2746C28.1796 28.6229 28.7162 29.469 29.7411 30.4252L29.7824 30.4596C30.0369 30.6935 30.3671 30.8036 30.6904 30.7898C31.0138 30.7761 31.3302 30.6454 31.5641 30.3908L31.5847 30.3633C31.8186 30.1088 31.9287 29.7786 31.9149 29.4553C31.9012 29.132 31.7636 28.8087 31.5022 28.561C30.6767 27.7974 30.491 27.3228 30.2433 26.5523C29.9544 25.665 30.0025 24.7982 30.2846 24.0277C30.4772 23.4981 30.7799 23.0028 31.1651 22.5694C31.5434 22.136 32.0043 21.7508 32.5134 21.455L32.534 21.4412C33.0568 21.1386 33.6209 20.9184 34.2056 20.8084C34.7628 20.7052 35.3338 20.6983 35.891 20.8152C36.6752 20.9803 37.4456 21.3931 38.1267 22.1085C38.7251 22.7345 39.2548 23.6012 39.6744 24.7432L39.6813 24.7569C39.8258 25.2041 40.2936 25.4655 40.8439 25.5686C41.0915 25.6168 41.3529 25.6306 41.6074 25.6168H41.6143C41.8757 25.603 42.1234 25.5549 42.3573 25.4792C42.77 25.3416 43.0933 25.1215 43.169 24.8395V24.6813C43.169 23.8833 43.6436 23.0372 44.2971 22.3424C45.0126 21.5857 45.9688 20.9872 46.7736 20.8221C47.2826 20.7189 47.7986 20.7121 48.3007 20.7877C48.8235 20.8703 49.3326 21.0354 49.8141 21.2761L49.8554 21.2899C50.3438 21.5375 50.7909 21.854 51.183 22.2254C51.5683 22.5969 51.8985 23.0165 52.1461 23.4774C52.5382 24.1997 52.7171 25.0252 52.5932 25.8988C52.4832 26.6624 52.4557 27.1439 51.8159 27.9075L51.809 27.9144C51.582 28.1827 51.4857 28.5197 51.5132 28.8499C51.5408 29.1664 51.6852 29.4759 51.9397 29.6961L51.981 29.7305C52.2493 29.9506 52.5795 30.04 52.9028 30.0125C53.2192 29.985 53.5288 29.8405 53.7489 29.586L53.7833 29.5378C54.4437 28.7536 54.6569 28.1758 54.9596 27.1852ZM70.066 60.8511C69.9353 60.5278 69.8596 60.177 69.8596 59.8055C69.8596 59.4341 69.9353 59.0832 70.066 58.7599C70.2035 58.4366 70.3962 58.1408 70.6438 57.9L70.6576 57.8794C70.7951 57.7418 70.9534 57.6111 71.1253 57.5079C71.2148 57.4529 71.3111 57.3979 71.4142 57.3497V53.0091H66.0761C66.083 52.727 66.083 52.445 66.0692 52.1561C66.0555 51.9978 66.1243 51.8396 66.2619 51.7502C66.8122 51.3719 67.3144 50.9797 67.7684 50.5739H72.625C72.962 50.5739 73.2647 50.7115 73.4848 50.9316C73.705 51.1517 73.8425 51.4544 73.8425 51.7915V57.391C73.9251 57.4323 74.0076 57.4804 74.0902 57.5355C74.2346 57.6318 74.3722 57.7418 74.496 57.8656L74.5167 57.8863C74.7643 58.1339 74.9707 58.4366 75.1083 58.7737C75.239 59.097 75.3147 59.4478 75.3147 59.8193C75.3147 60.177 75.2459 60.521 75.1152 60.8443L75.1083 60.8649C74.9707 61.202 74.7643 61.4978 74.5167 61.7523C74.269 61.9999 73.9664 62.2063 73.6293 62.3439C73.306 62.4746 72.9551 62.5503 72.5837 62.5503C72.2191 62.5503 71.8683 62.4746 71.5381 62.3439C71.201 62.2063 70.8983 61.9999 70.6507 61.7523C70.4099 61.4909 70.2035 61.1882 70.066 60.8511ZM77.798 46.9211H70.5406C70.6644 46.6528 70.7745 46.3846 70.8708 46.1094C71.0634 45.5728 71.201 45.0294 71.2835 44.486H77.798C77.8461 44.3965 77.8943 44.3071 77.9493 44.2177C78.0525 44.0526 78.1763 43.9012 78.307 43.7705C78.5615 43.516 78.8573 43.3165 79.1944 43.1789C79.5177 43.0482 79.8686 42.9726 80.24 42.9726C80.5977 42.9726 80.9417 43.0414 81.265 43.1721L81.2856 43.1789C81.6227 43.3165 81.9185 43.5229 82.173 43.7705C82.4207 44.0182 82.6271 44.3209 82.7646 44.6579C82.8953 44.9812 82.971 45.3321 82.971 45.7035C82.971 46.0681 82.8953 46.419 82.7646 46.7492C82.6271 47.0862 82.4207 47.3889 82.173 47.6365C81.9254 47.8842 81.6227 48.0906 81.2856 48.2281C80.9623 48.3588 80.6115 48.4345 80.24 48.4345C79.8823 48.4345 79.5384 48.3657 79.2151 48.235L79.1944 48.2281C78.8573 48.0906 78.5615 47.8842 78.307 47.6365C78.1763 47.5058 78.0594 47.3614 77.9562 47.2032L77.9424 47.1825C77.8943 47.1 77.8461 47.0106 77.798 46.9211ZM80.1093 40.2622H70.9809C70.747 39.4918 70.4168 38.742 70.004 38.0266L69.9903 38.0059C69.9559 37.944 69.9215 37.889 69.8871 37.8271H78.8986V29.8818C78.8298 29.8405 78.761 29.7992 78.6922 29.7511C78.5547 29.6548 78.4308 29.5516 78.3139 29.4347C78.0663 29.187 77.8599 28.8843 77.7223 28.5473C77.5916 28.2239 77.5159 27.8731 77.5159 27.5016C77.5159 27.1371 77.5916 26.7794 77.7223 26.456C77.8599 26.119 78.0663 25.8232 78.3139 25.5686C78.5616 25.321 78.8642 25.1146 79.2013 24.9771C79.5246 24.8463 79.8754 24.7707 80.2469 24.7707C80.6115 24.7707 80.9623 24.8463 81.2925 24.9771C81.6296 25.1146 81.9323 25.321 82.1799 25.5686C82.4276 25.8163 82.6339 26.119 82.7715 26.456C82.9022 26.7794 82.9779 27.1302 82.9779 27.5016C82.9779 27.8594 82.9091 28.2033 82.7784 28.5266L82.7715 28.5473C82.6339 28.8843 82.4276 29.1801 82.1799 29.4347C82.0286 29.586 81.8497 29.7236 81.664 29.8405C81.5608 29.9024 81.4439 29.9643 81.3338 30.0125V39.0378C81.3338 39.3748 81.1962 39.6775 80.9761 39.8976C80.7491 40.1247 80.4464 40.2622 80.1093 40.2622ZM70.5681 34.3876H67.4588C67.5414 33.9335 67.5895 33.4795 67.6102 33.0255C67.6239 32.6609 67.6239 32.3032 67.6033 31.9524H69.3505V28.3615C69.2542 28.3134 69.1648 28.2652 69.0754 28.2033C68.9103 28.1001 68.7589 27.9763 68.6145 27.8318C68.3668 27.5842 68.1605 27.2815 68.0229 26.9445C67.8922 26.6211 67.8165 26.2703 67.8165 25.9057C67.8165 25.5411 67.8922 25.1903 68.0229 24.8601C68.1605 24.5368 68.3531 24.241 68.5938 23.9934L68.6145 23.9727C68.8621 23.7251 69.1648 23.5187 69.5019 23.3811C69.8252 23.2504 70.176 23.1747 70.5475 23.1747C70.919 23.1747 71.2698 23.2504 71.5931 23.3811C71.9164 23.5187 72.2122 23.7113 72.4599 23.959L72.4805 23.9727C72.7281 24.2204 72.9276 24.5093 73.0652 24.8395L73.0721 24.8601C73.2028 25.1834 73.2785 25.5343 73.2785 25.9057C73.2785 26.2703 73.2028 26.628 73.0721 26.9513C72.9345 27.2746 72.7419 27.5704 72.5011 27.8181L72.4805 27.8387C72.3498 27.9694 72.2053 28.0864 72.0402 28.1964C71.9577 28.2515 71.8751 28.2996 71.7857 28.3409V33.17C71.7857 33.507 71.6481 33.8097 71.428 34.0298C71.2079 34.25 70.8983 34.3876 70.5681 34.3876ZM22.3599 13.5648C22.6833 13.6955 23.0341 13.7711 23.4056 13.7711C23.777 13.7711 24.1279 13.6955 24.4512 13.5648C24.7745 13.4272 25.0703 13.2346 25.311 12.9869L25.3317 12.9732C25.4693 12.8356 25.6 12.6774 25.7032 12.5054C25.7582 12.416 25.8132 12.3197 25.8614 12.2165H30.202V15.9655C30.9656 15.5597 31.7911 15.2639 32.6372 15.0919V10.9989C32.6372 10.6618 32.4996 10.3591 32.2795 10.139C32.0594 9.91887 31.7567 9.78129 31.4196 9.78129H25.8201C25.7788 9.69874 25.7307 9.6162 25.6756 9.53365C25.5793 9.38919 25.4693 9.25161 25.3454 9.12779L25.3248 9.10715C25.0772 8.8595 24.7745 8.65313 24.4374 8.51555C24.1141 8.38485 23.7633 8.30918 23.3918 8.30918C23.0341 8.30918 22.6833 8.37797 22.3668 8.50867L22.3462 8.51555C22.0091 8.65313 21.7133 8.8595 21.4588 9.10715C21.2112 9.35479 21.0048 9.65747 20.8672 9.99454C20.7365 10.3179 20.6608 10.6687 20.6608 11.0402C20.6608 11.4047 20.7365 11.7556 20.8672 12.0858C21.0048 12.4228 21.2112 12.7255 21.4588 12.9732C21.7271 13.2208 22.0229 13.4272 22.3599 13.5648ZM36.2968 5.83273V15.2295C37.1086 15.4634 37.8997 15.8348 38.6426 16.3714L38.7251 16.4333C38.7251 16.4127 38.732 16.392 38.732 16.3714V5.83273C38.8214 5.78458 38.9109 5.73643 39.0003 5.6814C39.1654 5.57821 39.3167 5.45439 39.4474 5.32369C39.6951 5.06916 39.9015 4.77337 40.039 4.43629C40.1697 4.11298 40.2454 3.76215 40.2454 3.39068C40.2454 3.03297 40.1766 2.68902 40.0459 2.36571L40.039 2.34507C39.9015 2.008 39.6951 1.7122 39.4474 1.45768C39.1998 1.21003 38.8971 1.00366 38.56 0.866082C38.2367 0.73538 37.8859 0.659711 37.5144 0.659711C37.1498 0.659711 36.799 0.73538 36.4688 0.866082C36.1317 1.00366 35.8291 1.21003 35.5814 1.45768C35.3338 1.70532 35.1274 2.008 34.9898 2.34507C34.8591 2.66839 34.7835 3.01922 34.7835 3.39068C34.7835 3.74839 34.8523 4.09234 34.983 4.41566L34.9898 4.43629C35.1274 4.77337 35.3338 5.06916 35.5814 5.32369C35.7121 5.45439 35.8566 5.57133 36.0148 5.67452L36.0286 5.6814C36.118 5.73643 36.2005 5.78458 36.2968 5.83273ZM42.9489 3.52138V17.2657C43.2791 16.9286 43.6299 16.6328 43.9876 16.3714C44.4347 16.0481 44.9025 15.7798 45.384 15.5734V4.73209H53.3293C53.3706 4.80088 53.4118 4.86967 53.46 4.93846C53.5563 5.07604 53.6595 5.19987 53.7764 5.31681C54.0241 5.56445 54.3268 5.77082 54.6638 5.9084C54.9871 6.03911 55.338 6.11477 55.7094 6.11477C56.074 6.11477 56.4317 6.03911 56.7551 5.9084C57.0921 5.77082 57.3948 5.56445 57.6424 5.31681C57.8901 5.06916 58.0965 4.76649 58.234 4.42941C58.3647 4.1061 58.4404 3.75527 58.4404 3.3838C58.4404 3.01922 58.3647 2.66839 58.234 2.33819C58.0965 2.00112 57.8901 1.69844 57.6424 1.4508C57.381 1.20315 57.0784 0.996783 56.7413 0.859203C56.418 0.728501 56.0672 0.652832 55.7026 0.652832C55.3449 0.652832 55.0009 0.721622 54.6776 0.852324L54.657 0.859203C54.3199 0.996783 54.0241 1.20315 53.7696 1.4508C53.6182 1.60214 53.4806 1.78099 53.3637 1.96673C53.3018 2.06991 53.2399 2.18685 53.1917 2.29692H44.1664C43.8294 2.29692 43.5267 2.4345 43.3066 2.65463C43.0864 2.88163 42.9489 3.18431 42.9489 3.52138ZM48.8235 13.0626V14.9474C49.0712 14.9612 49.3257 14.9818 49.5734 15.0231C50.1512 15.1057 50.7153 15.2501 51.2587 15.4496V14.2871H54.8496C54.8977 14.3834 54.9459 14.4728 55.0078 14.5622C55.111 14.7273 55.2348 14.8786 55.3792 15.0231C55.6269 15.2708 55.9296 15.4771 56.2666 15.6147C56.59 15.7454 56.9408 15.8211 57.3054 15.8211C57.67 15.8211 58.0208 15.7454 58.351 15.6147C58.6743 15.4771 58.9701 15.2845 59.2177 15.0437L59.2384 15.0231C59.486 14.7755 59.6924 14.4728 59.83 14.1357C59.9607 13.8124 60.0363 13.4616 60.0363 13.0901C60.0363 12.7186 59.9607 12.3678 59.83 12.0445C59.6924 11.7212 59.4998 11.4254 59.2521 11.1777L59.2384 11.1571C58.9907 10.9095 58.7018 10.71 58.3716 10.5724L58.351 10.5655C58.0277 10.4348 57.6768 10.3591 57.3054 10.3591C56.9408 10.3591 56.5831 10.4348 56.2598 10.5655C55.9365 10.7031 55.6407 10.8957 55.393 11.1365L55.3724 11.1571C55.2417 11.2878 55.1247 11.4323 55.0147 11.5974C54.9596 11.6799 54.9115 11.7625 54.8702 11.8519H50.0411C49.7041 11.8519 49.4014 11.9895 49.1813 12.2096C48.9611 12.4228 48.8235 12.7255 48.8235 13.0626ZM13.8575 24.867C13.9882 25.1903 14.0638 25.5411 14.0638 25.9126C14.0638 26.2841 13.9882 26.6349 13.8575 26.9582C13.7199 27.2815 13.5273 27.5773 13.2796 27.8181L13.2659 27.8387C13.1283 27.9763 12.9701 28.107 12.7981 28.2102C12.7087 28.2652 12.6124 28.3203 12.5092 28.3684V32.7091H17.0149V32.9223C17.0149 33.0874 17.0218 33.2594 17.0287 33.4382C17.0425 33.5896 16.9737 33.7409 16.843 33.8372C16.2514 34.2569 15.7217 34.6971 15.2402 35.1442H11.3054C10.9683 35.1442 10.6656 35.0067 10.4455 34.7865C10.2254 34.5664 10.0878 34.2637 10.0878 33.9267V28.3271C10.0052 28.2859 9.92268 28.2377 9.84013 28.1827C9.69567 28.0864 9.55809 27.9763 9.43427 27.8525L9.41363 27.8318C9.16599 27.5842 8.95962 27.2815 8.82204 26.9445C8.69133 26.6211 8.61566 26.2703 8.61566 25.8988C8.61566 25.5411 8.68445 25.1972 8.81516 24.8739L8.82204 24.8532C8.95962 24.5162 9.16599 24.2204 9.41363 23.9658C9.66128 23.7182 9.96395 23.5118 10.301 23.3742C10.6243 23.2435 10.9752 23.1679 11.3466 23.1679C11.7112 23.1679 12.0621 23.2435 12.3922 23.3742C12.7293 23.5118 13.032 23.7182 13.2796 23.9658C13.5135 24.2272 13.7199 24.5299 13.8575 24.867ZM6.12546 38.797H12.5917C12.4817 39.0446 12.3854 39.2992 12.2959 39.5468C12.1033 40.104 11.9657 40.6612 11.8832 41.2253H6.12546C6.07731 41.3147 6.02915 41.4042 5.97412 41.4936C5.87094 41.6587 5.74711 41.81 5.61641 41.9407C5.36189 42.1952 5.06609 42.3947 4.72902 42.5323C4.4057 42.663 4.05487 42.7387 3.68341 42.7387C3.3257 42.7387 2.98175 42.6699 2.65843 42.5392L2.6378 42.5323C2.30072 42.3947 2.00493 42.1884 1.7504 41.9407C1.50276 41.6931 1.29639 41.3904 1.15881 41.0533C1.0281 40.73 0.952436 40.3792 0.952436 40.0077C0.952436 39.6431 1.0281 39.2923 1.15881 38.9621C1.29639 38.625 1.50276 38.3224 1.7504 38.0747C1.99805 37.8271 2.30072 37.6207 2.6378 37.4831C2.96111 37.3524 3.31194 37.2767 3.68341 37.2767C4.04112 37.2767 4.38507 37.3455 4.70838 37.4762L4.72902 37.4831C5.06609 37.6207 5.36189 37.8271 5.61641 38.0747C5.74711 38.2054 5.86406 38.3499 5.96724 38.5081L5.981 38.5287C6.02915 38.6181 6.07731 38.7076 6.12546 38.797ZM3.81411 45.4559H12.2272C12.4886 46.2883 12.8669 47.0931 13.3484 47.8567V47.8636L13.3622 47.8911H5.02482V55.8363C5.09361 55.8776 5.1624 55.9189 5.23119 55.967C5.36877 56.0633 5.49259 56.1665 5.60953 56.2835C5.85718 56.5311 6.06355 56.8338 6.20113 57.1709C6.33183 57.4942 6.4075 57.845 6.4075 58.2165C6.4075 58.5811 6.33183 58.9388 6.20113 59.2621C6.06355 59.5992 5.85718 59.895 5.60953 60.1495C5.36189 60.3971 5.05921 60.6035 4.72214 60.7411C4.39882 60.8718 4.048 60.9475 3.67653 60.9475C3.31194 60.9475 2.96111 60.8718 2.63092 60.7411C2.29384 60.6035 1.99117 60.3971 1.74352 60.1495C1.49588 59.8812 1.28951 59.5785 1.15193 59.2483C1.02123 58.925 0.945557 58.5742 0.945557 58.2027C0.945557 57.845 1.01435 57.5011 1.14505 57.1777L1.15193 57.1571C1.28951 56.82 1.49588 56.5242 1.74352 56.2697C1.89486 56.1184 2.07372 55.9808 2.25945 55.8639C2.36263 55.8019 2.47958 55.74 2.58964 55.6919V46.6666C2.58964 46.3295 2.72722 46.0269 2.94735 45.8067C3.17436 45.5935 3.47704 45.4559 3.81411 45.4559ZM13.3553 51.3306H15.6254C15.5497 51.7846 15.5084 52.2317 15.4947 52.672C15.4809 53.0435 15.4878 53.408 15.5153 53.7658H14.5729V57.3566C14.6692 57.4048 14.7586 57.4529 14.8481 57.5148C15.0132 57.618 15.1645 57.7418 15.309 57.8863C15.5566 58.1339 15.763 58.4366 15.9005 58.7737C16.0312 59.097 16.1069 59.4478 16.1069 59.8193C16.1069 60.1908 16.0312 60.5347 15.9005 60.8649C15.763 61.1882 15.5704 61.484 15.3296 61.7317L15.309 61.7523C15.0613 61.9999 14.7586 62.2063 14.4216 62.3439C14.0982 62.4746 13.7474 62.5503 13.3759 62.5503C13.0045 62.5503 12.6536 62.4746 12.3303 62.3439C12.007 62.2063 11.7112 62.0137 11.4636 61.7661L11.4429 61.7523C11.1953 61.5047 10.9958 61.2157 10.8582 60.8855L10.8513 60.8649C10.7206 60.5416 10.645 60.1908 10.645 59.8193C10.645 59.4547 10.7206 59.097 10.8513 58.7737C10.9889 58.4504 11.1815 58.1546 11.4223 57.9069L11.4429 57.8863C11.5736 57.7556 11.7181 57.6386 11.8832 57.5286C11.9657 57.4735 12.0483 57.4254 12.1377 57.3841V52.555C12.1377 52.218 12.2753 51.9153 12.4954 51.6952C12.7156 51.4613 13.0182 51.3306 13.3553 51.3306ZM46.3677 80.0023V70.3786C45.5079 70.1103 44.6961 69.6769 43.9532 69.0647L43.9394 69.0509V80.0092C43.85 80.0574 43.7606 80.1055 43.6712 80.1606C43.5061 80.2637 43.3547 80.3876 43.224 80.5183C42.9764 80.7728 42.77 81.0686 42.6324 81.4057C42.5017 81.729 42.4261 82.0798 42.4261 82.4513C42.4261 82.809 42.4948 83.1529 42.6255 83.4762L42.6324 83.4969C42.77 83.834 42.9764 84.1298 43.224 84.3843C43.4717 84.6319 43.7743 84.8383 44.1114 84.9759C44.4347 85.1066 44.7856 85.1822 45.157 85.1822C45.5216 85.1822 45.8724 85.1066 46.2026 84.9759C46.5397 84.8383 46.8424 84.6319 47.09 84.3843C47.3377 84.1366 47.544 83.834 47.6816 83.4969C47.8123 83.1736 47.888 82.8227 47.888 82.4513C47.888 82.0936 47.8192 81.7496 47.6885 81.4263L47.6816 81.4057C47.544 81.0686 47.3377 80.7728 47.09 80.5183C46.9593 80.3876 46.8149 80.2706 46.6566 80.1674L46.636 80.1537C46.5466 80.0986 46.4572 80.0505 46.3677 80.0023ZM39.7088 82.3137V68.4456C39.4199 68.7414 39.1172 69.0028 38.8008 69.2435C38.3124 69.615 37.8034 69.9108 37.2737 70.1447V81.1099H29.3284C29.2871 81.0411 29.2458 80.9723 29.1977 80.9035C29.1014 80.7659 28.9982 80.6421 28.8813 80.5251C28.6336 80.2775 28.3309 80.0711 27.9939 79.9335C27.6706 79.8028 27.3197 79.7272 26.9483 79.7272C26.5837 79.7272 26.226 79.8028 25.9026 79.9335C25.5656 80.0711 25.2698 80.2775 25.0153 80.5251C24.7676 80.7728 24.5612 81.0755 24.4237 81.4125C24.293 81.7359 24.2173 82.0867 24.2173 82.4581C24.2173 82.8227 24.293 83.1736 24.4237 83.5038C24.5612 83.8408 24.7676 84.1435 25.0153 84.3912C25.2629 84.6388 25.5656 84.8452 25.9026 84.9827C26.226 85.1134 26.5768 85.1891 26.9483 85.1891C27.306 85.1891 27.6499 85.1203 27.9732 84.9896L27.9939 84.9827C28.3309 84.8452 28.6267 84.6388 28.8813 84.3912C29.0326 84.2398 29.1702 84.061 29.2871 83.8752C29.349 83.772 29.4109 83.6551 29.4591 83.545H38.4844C38.8214 83.545 39.1241 83.4075 39.3443 83.1873C39.5713 82.9534 39.7088 82.6508 39.7088 82.3137ZM33.8342 72.7725V70.7707C33.2976 70.7432 32.761 70.6606 32.2382 70.5299C31.9562 70.4611 31.6741 70.3717 31.399 70.2754V71.5618H27.8081C27.76 71.4655 27.7118 71.376 27.6499 71.2866C27.5467 71.1215 27.4229 70.9702 27.2784 70.8257C27.0308 70.5781 26.7281 70.3717 26.3911 70.2341C26.0677 70.1034 25.7169 70.0278 25.3523 70.0278C24.9877 70.0278 24.6369 70.1034 24.3067 70.2341C23.9834 70.3717 23.6876 70.5643 23.44 70.8051L23.4193 70.8188C23.1717 71.0665 22.9653 71.3692 22.8277 71.7062C22.697 72.0296 22.6214 72.3804 22.6214 72.7518C22.6214 73.1233 22.697 73.4741 22.8277 73.7975C22.9653 74.1208 23.1579 74.4166 23.4056 74.6642L23.4193 74.6849C23.667 74.9325 23.9559 75.132 24.2861 75.2696L24.3067 75.2765C24.63 75.4072 24.9809 75.4828 25.3523 75.4828C25.7169 75.4828 26.0677 75.4072 26.3979 75.2765C26.7212 75.1389 27.017 74.9463 27.2647 74.7055L27.2853 74.6849C27.416 74.5542 27.533 74.4097 27.643 74.2446C27.6981 74.1621 27.7462 74.0795 27.7875 73.9901H32.6166C32.9536 73.9901 33.2563 73.8525 33.4764 73.6324C33.6966 73.4122 33.8342 73.1096 33.8342 72.7725Z" fill="url(#paint0_linear_163_670)"/>
<defs>
<linearGradient id="paint0_linear_163_670" x1="40.9233" y1="4.80637" x2="41.9615" y2="80.6084" gradientUnits="userSpaceOnUse">
<stop stop-color="#17D1E5"/>
<stop offset="1" stop-color="#B44AE8"/>
</linearGradient>
</defs>
</svg>
