<svg width="76" height="76" viewBox="0 0 76 76" fill="none" xmlns="http://www.w3.org/2000/svg">
<path fill-rule="evenodd" clip-rule="evenodd" d="M68.5876 4.52315C70.9324 6.82018 72.3818 9.98828 72.3818 13.4965C72.3818 17.0046 70.9324 20.1727 68.5876 22.4698C66.2429 24.7668 63.009 26.1868 59.434 26.1868C57.5948 26.1868 55.8469 25.8109 54.2634 25.1367L53.0636 27.3562C57.0893 29.9933 59.7446 34.4859 59.7446 39.5811C59.7446 43.8828 57.8566 47.7549 54.8481 50.4457L56.0844 51.997C58.0332 50.8514 60.311 50.1892 62.7471 50.1892C66.3221 50.1892 69.562 51.6092 71.9007 53.9062C74.2454 56.2032 75.6949 59.3713 75.6949 62.8795C75.6949 66.3877 74.2454 69.5558 71.9007 71.8528C69.556 74.1498 66.3221 75.5698 62.7471 75.5698C59.1721 75.5698 55.9321 74.1498 53.5874 71.8528C51.2426 69.5558 49.7932 66.3877 49.7932 62.8795C49.7932 59.3713 51.2426 56.2032 53.5874 53.9062C53.6605 53.8346 53.7336 53.769 53.8066 53.6974L52.6008 52.1044C50.3169 53.4826 47.6251 54.2761 44.7444 54.2761C39.4093 54.2761 34.7199 51.5435 32.0645 47.4327L24.8476 51.102C26.1022 53.059 26.8269 55.3679 26.8269 57.8499C26.8269 61.3521 25.3774 64.5262 23.0327 66.8172C20.688 69.1143 17.4541 70.5342 13.873 70.5342C10.298 70.5342 7.05804 69.1143 4.7194 66.8172C2.38075 64.5143 0.931274 61.3402 0.931274 57.838C0.931274 54.3358 2.38075 51.1617 4.72549 48.8647C7.07022 46.5676 10.3041 45.1477 13.8791 45.1477C17.4541 45.1477 20.6941 46.5676 23.0388 48.8647L23.0571 48.8885L30.7856 44.9567C30.1156 43.2921 29.7502 41.4724 29.7502 39.5751C29.7502 36.8247 30.5237 34.2472 31.8696 32.0457L26.9548 28.3048C26.833 28.4361 26.7051 28.5673 26.5772 28.6926C24.2325 30.9896 20.9986 32.4096 17.4236 32.4096C13.8486 32.4096 10.6086 30.9896 8.27 28.6926C5.92526 26.3956 4.47579 23.2275 4.47579 19.7193C4.47579 16.2111 5.92526 13.043 8.27 10.752C10.6147 8.45494 13.8486 7.03496 17.4236 7.03496C20.9986 7.03496 24.2386 8.45494 26.5772 10.752C28.922 13.049 30.3714 16.2171 30.3714 19.7193C30.3714 22.0402 29.7381 24.2119 28.6296 26.0853L33.5384 29.8202C36.285 26.7953 40.2863 24.8861 44.7505 24.8861C46.8211 24.8861 48.7883 25.2978 50.5849 26.0376L51.8212 23.7585C51.2731 23.3707 50.7615 22.9351 50.2865 22.4698C47.9417 20.1727 46.4923 17.0046 46.4923 13.4965C46.4923 9.98828 47.9417 6.82018 50.2865 4.52315C52.619 2.22613 55.859 0.806152 59.434 0.806152C63.009 0.806152 66.249 2.22613 68.5876 4.52315ZM46.5775 43.1907C46.9734 43.5785 47.217 44.1095 47.217 44.7002C47.217 45.2849 46.9734 45.8218 46.5775 46.2097C46.1817 46.5975 45.6396 46.8361 45.0428 46.8361C44.4399 46.8361 43.8978 46.5975 43.502 46.2097C43.1061 45.8218 42.8625 45.2908 42.8625 44.7002C42.8625 44.1155 43.1061 43.5785 43.502 43.1907C43.8978 42.8029 44.4399 42.5643 45.0428 42.5643C45.6335 42.5643 46.1817 42.8029 46.5775 43.1907ZM49.2451 33.9072C50.5727 34.5098 51.8882 35.3928 53.1732 36.5801C53.3803 36.771 53.4838 37.0216 53.496 37.2781C53.5021 37.5347 53.4108 37.7912 53.222 37.9941L53.1976 38.0179C53.0088 38.2029 52.7591 38.2983 52.5094 38.3043C52.2475 38.3103 51.9857 38.2208 51.7847 38.0358L51.7664 38.0179C50.6702 37.0096 49.5557 36.2519 48.4472 35.7448C47.3205 35.2317 46.1938 34.9692 45.0793 34.9513C43.9466 34.9334 42.8138 35.166 41.681 35.6374C40.5421 36.1147 39.4093 36.8366 38.3009 37.7972C38.2826 37.8151 38.2644 37.833 38.24 37.8449C38.0329 38.006 37.7832 38.0776 37.5457 38.0597C37.296 38.0478 37.0463 37.9404 36.8636 37.7435C36.8453 37.7256 36.8271 37.7077 36.8149 37.6838C36.6505 37.4869 36.5774 37.2364 36.5956 36.9977C36.6139 36.7411 36.7296 36.4965 36.9367 36.3116C38.2339 35.1839 39.5738 34.3367 40.9441 33.7699C42.3144 33.2031 43.709 32.9287 45.1159 32.9525C46.4923 32.9764 47.8748 33.2867 49.2451 33.9072ZM47.5885 38.0716C48.3985 38.3759 49.1963 38.8353 49.9637 39.4498L49.9881 39.4677C50.1951 39.6408 50.3169 39.8794 50.3413 40.13C50.3657 40.3746 50.2987 40.6371 50.1281 40.846L50.1038 40.8758C49.9272 41.0786 49.6835 41.198 49.4278 41.2278C49.172 41.2517 48.8979 41.1801 48.6787 41.007C48.0818 40.5297 47.4789 40.1777 46.8699 39.945C46.2608 39.7124 45.6457 39.593 45.0367 39.599C44.4277 39.599 43.8065 39.7243 43.1975 39.9629C42.5763 40.2016 41.9611 40.5655 41.3643 41.0369C41.1451 41.2099 40.8771 41.2815 40.6152 41.2576C40.3594 41.2338 40.1097 41.1085 39.927 40.8937C39.7504 40.6789 39.6773 40.4164 39.7017 40.1598V40.1419C39.7321 39.8913 39.8539 39.6587 40.0671 39.4856C40.8405 38.8711 41.6444 38.4057 42.4727 38.0895C43.3071 37.7733 44.1597 37.6063 45.0245 37.6063C45.9015 37.6003 46.7542 37.7554 47.5885 38.0716ZM12.521 18.1323H13.465V16.8555C13.465 15.7995 13.9035 14.8448 14.616 14.1528C15.3225 13.4607 16.303 13.0251 17.381 13.0251C18.459 13.0251 19.4334 13.4547 20.1399 14.1528C20.8463 14.8448 21.2909 15.8054 21.2909 16.8555V18.1323H22.04C22.2044 18.1323 22.3445 18.2695 22.3445 18.4306V24.737C22.3445 24.8981 22.2044 25.0353 22.04 25.0353H12.5149C12.3505 25.0353 12.2104 24.8981 12.2104 24.737V18.4306C12.2104 18.2635 12.3505 18.1323 12.521 18.1323ZM14.9814 18.1323H19.7623V16.8316C19.7623 16.1873 19.4943 15.6026 19.0619 15.179C18.6295 14.7554 18.0265 14.4928 17.3749 14.4928C16.7171 14.4928 16.1203 14.7554 15.6879 15.179C15.2555 15.6026 14.9875 16.1932 14.9875 16.8316V18.1323H14.9814ZM13.8791 51.2989L6.85707 58.0408L8.56842 58.9238L13.8365 53.5124L19.1898 58.9238L20.9011 58.0408L13.8791 51.2989ZM8.94601 59.6219L13.8913 54.7773L18.8183 59.6219V64.3711H15.2189H12.5149H8.94601V59.6219ZM13.3858 61.1791L12.7341 62.8497H15.018L14.415 61.1552C14.7987 60.9643 15.0606 60.5765 15.0606 60.1171C15.0606 59.4727 14.5247 58.9537 13.873 58.9537C13.2153 58.9537 12.6854 59.4787 12.6854 60.1171C12.6976 60.5884 12.9838 60.9941 13.3858 61.1791ZM66.7849 61.2984C66.6692 61.3521 66.5535 61.4177 66.4378 61.4834C66.0906 61.6803 65.7496 61.9249 65.3963 62.2053L64.6472 61.37C64.903 61.1373 65.1832 60.9225 65.4816 60.7316C65.7191 60.5825 65.9627 60.4452 66.2185 60.3319C66.3221 60.2841 66.4195 60.2364 66.523 60.1947C66.0297 59.3415 65.3233 58.7269 64.5193 58.3511C63.7215 57.9752 62.8202 57.832 61.9493 57.9096C61.0845 57.9931 60.2379 58.3033 59.5375 58.8343C58.7336 59.4489 58.1185 60.3617 57.881 61.5729L57.8079 61.9547L57.4242 62.0203C57.0466 62.086 56.7117 62.1755 56.4132 62.2888C56.127 62.3962 55.8712 62.5334 55.6459 62.6886C55.4693 62.8139 55.3109 62.957 55.183 63.1122C54.775 63.5895 54.5862 64.1861 54.5923 64.7887C54.5984 65.4032 54.7993 66.0237 55.1769 66.5309C55.317 66.7218 55.4814 66.8948 55.6642 67.044C55.853 67.1991 56.0661 67.3244 56.3036 67.4198C56.5411 67.5153 56.7969 67.5809 57.0893 67.6227H68.277C68.8251 67.4914 69.3002 67.3184 69.7082 67.0977C70.1163 66.8769 70.4451 66.6025 70.6948 66.2803C71.0785 65.7791 71.2734 65.0631 71.2795 64.3353C71.2917 63.5716 71.0968 62.8019 70.7253 62.2411C70.6217 62.08 70.4999 61.9368 70.3781 61.8055C69.8178 61.2149 69.1114 60.9643 68.3805 60.9583C67.8568 60.9464 67.3087 61.0717 66.7849 61.2984ZM54.982 13.0072C54.6349 12.2793 54.44 11.5216 54.4461 10.74C54.4522 9.95845 54.6532 9.153 55.0978 8.31772C55.0978 8.31175 55.1039 8.30579 55.1039 8.29982C55.6824 7.33925 56.4924 6.69489 57.3938 6.33691C58.149 6.03263 58.9711 5.9312 59.7751 6.0028C60.579 6.07439 61.3646 6.32498 62.0528 6.71875C62.9237 7.22589 63.6424 7.97764 64.0382 8.92628C64.2514 9.43938 64.3975 10.0121 64.4158 10.6386C64.4341 11.2651 64.3245 11.9393 64.0321 12.6492L61.8396 15.9904L57.2659 16.6347C57.0405 15.9784 56.6812 15.2506 56.2184 14.7255C55.719 14.1826 55.3048 13.6814 54.982 13.0072ZM57.7226 19.421C57.5095 18.8482 57.5278 18.4903 57.3451 17.7087L62.1502 17.0106C61.9675 17.8459 62.132 18.2755 62.0041 18.9318C61.6082 21.0021 58.4535 21.3362 57.7226 19.421ZM70.4512 55.3142C68.478 53.3811 65.7557 52.1879 62.741 52.1879C59.7263 52.1879 57.004 53.3811 55.0308 55.3142C53.0575 57.2473 51.8395 59.9202 51.8395 62.8675C51.8395 65.8149 53.0575 68.4878 55.0308 70.4209C57.004 72.354 59.7324 73.5472 62.741 73.5472C65.7496 73.5472 68.478 72.354 70.4512 70.4209C72.4245 68.4878 73.6425 65.8149 73.6425 62.8675C73.6425 59.9202 72.4245 57.2473 70.4512 55.3142ZM67.1442 5.93717C65.171 4.00409 62.4487 2.81083 59.434 2.81083C56.4254 2.81083 53.697 4.00409 51.7238 5.93717C49.7505 7.87025 48.5325 10.5372 48.5325 13.4905C48.5325 16.4438 49.7505 19.1107 51.7238 21.0438C53.697 22.9769 56.4193 24.1702 59.434 24.1702C62.4426 24.1702 65.171 22.9769 67.1442 21.0438C69.1175 19.1107 70.3355 16.4378 70.3355 13.4905C70.3355 10.5431 69.1175 7.87025 67.1442 5.93717ZM25.1278 12.16C23.1545 10.2269 20.4322 9.03367 17.4175 9.03367C14.4029 9.03367 11.6805 10.2269 9.70729 12.16C7.73406 14.0931 6.51601 16.766 6.51601 19.7133C6.51601 22.6607 7.73406 25.3336 9.70729 27.2667C11.6805 29.1997 14.4029 30.393 17.4175 30.393C20.4261 30.393 23.1545 29.1997 25.1278 27.2667C27.101 25.3336 28.319 22.6667 28.319 19.7133C28.3251 16.766 27.101 14.0931 25.1278 12.16ZM21.5893 50.2846C19.6161 48.3516 16.8877 47.1583 13.8791 47.1583C10.8705 47.1583 8.1421 48.3516 6.16887 50.2846C4.19564 52.2177 2.97759 54.8846 2.97759 57.838C2.97759 60.7853 4.19564 63.4582 6.16887 65.3913C8.1421 67.3244 10.8644 68.5176 13.8791 68.5176C16.8877 68.5176 19.6161 67.3244 21.5893 65.3913C23.5626 63.4582 24.7806 60.7913 24.7806 57.838C24.7867 54.8846 23.5626 52.2177 21.5893 50.2846Z" fill="url(#paint0_linear_163_718)"/>
<defs>
<linearGradient id="paint0_linear_163_718" x1="37.3667" y1="4.47953" x2="38.2577" y2="71.5193" gradientUnits="userSpaceOnUse">
<stop stop-color="#17D1E5"/>
<stop offset="1" stop-color="#B44AE8"/>
</linearGradient>
</defs>
</svg>
