<svg width="75" height="77" viewBox="0 0 75 77" fill="none" xmlns="http://www.w3.org/2000/svg">
<path d="M37.6021 76.5933L33.9467 76.4111C33.6369 76.3844 33.3541 76.3398 33.0718 76.2945L30.3121 75.8637C29.6999 75.7434 29.1202 75.5903 28.5588 75.4428L27.9172 75.276C27.7372 75.2302 27.5823 75.1136 27.4887 74.9518C27.3944 74.79 27.3687 74.596 27.4165 74.415L29.032 68.3072C26.9279 67.6848 24.8924 66.8294 22.9628 65.7563L19.8308 71.2399C19.7377 71.4036 19.5829 71.522 19.4017 71.5685C19.2217 71.615 19.0294 71.5858 18.8703 71.4873L16.8213 70.219C16.2538 69.8266 15.7291 69.4267 15.2075 69.0281L13.8736 68.0165C13.6471 67.8249 13.4567 67.6501 13.2669 67.4753L11.1561 65.527L9.16524 63.3177C9.00423 63.1367 8.84263 62.955 8.68407 62.7691L7.56988 61.2702C7.2044 60.7761 6.83892 60.2827 6.49793 59.7769L5.2258 57.6723C5.12846 57.5111 5.0997 57.3171 5.14562 57.1343C5.19153 56.9514 5.30846 56.7945 5.47008 56.6997L10.8855 53.5283C9.82579 51.5744 8.98036 49.5127 8.36634 47.3827L2.33382 49.0186C2.15445 49.0676 1.96406 49.0409 1.80366 48.9455C1.64388 48.85 1.52817 48.6938 1.48348 48.5109L1.31758 47.8557C1.17249 47.2891 1.02191 46.7039 0.908042 46.1132L0.484397 43.3299C0.437871 43.028 0.391958 42.7242 0.371143 42.4174L0.189941 38.7712L0.370527 35.0673C0.391953 34.753 0.437871 34.4499 0.484397 34.148L0.903745 31.3913C1.02129 30.7714 1.17127 30.1906 1.31575 29.6284L1.48348 28.9669C1.52817 28.7847 1.64388 28.6279 1.80366 28.5324C1.96406 28.4369 2.15322 28.4103 2.33382 28.4592L8.36634 30.0951C8.98036 27.9652 9.82579 25.9034 10.8855 23.9495L5.47008 20.7782C5.30846 20.6839 5.19153 20.5271 5.14562 20.3436C5.0997 20.1607 5.12846 19.9667 5.2258 19.8055L6.47895 17.7308C6.84076 17.1933 7.20746 16.6974 7.57416 16.2021L8.6559 14.7447C8.84568 14.5203 9.00852 14.3368 9.17075 14.1546L11.1132 11.9949L13.2681 10.0019C13.4579 9.82712 13.6483 9.65231 13.8442 9.48556L15.248 8.41872C15.7555 8.03129 16.2654 7.64138 16.7882 7.27378L18.8727 5.98874C19.0313 5.89018 19.2235 5.86104 19.4035 5.90877C19.5841 5.95527 19.7384 6.07367 19.8314 6.2367L22.9634 11.7203C24.8924 10.6472 26.9285 9.79116 29.0326 9.16941L27.4171 3.06161C27.3693 2.87998 27.395 2.68657 27.4893 2.52478C27.5836 2.36299 27.7378 2.24583 27.9184 2.20057L28.5668 2.03196C29.1257 1.88505 29.7036 1.73256 30.2864 1.61787L32.685 1.23478C32.8564 1.21308 33.0045 1.19015 33.1533 1.16783C33.4086 1.12878 33.6651 1.09035 33.924 1.06803L37.5347 0.883301L41.1974 1.06617C41.4742 1.09035 41.7264 1.12816 41.9786 1.16659C42.1292 1.18953 42.2792 1.21308 42.4298 1.23106L44.8271 1.61292C45.4271 1.72946 45.9927 1.87823 46.54 2.02205C46.7677 2.08218 46.9961 2.14168 47.2257 2.19933C47.4063 2.24459 47.5612 2.36113 47.6554 2.52354C47.7497 2.68533 47.776 2.87936 47.7277 3.06099L46.1121 9.17623C48.2266 9.80046 50.2621 10.6541 52.1807 11.7209L55.3127 6.23732C55.4058 6.07429 55.56 5.95589 55.7406 5.90939C55.9212 5.8629 56.1128 5.89142 56.2714 5.98936L58.3204 7.25084C58.8193 7.60046 59.2693 7.94326 59.7199 8.2873L61.2644 9.46324C61.4995 9.66223 61.7027 9.84695 61.9048 10.0311L63.9807 11.9527L65.7964 13.9612C66.0217 14.2104 66.2446 14.459 66.4582 14.7162L67.2063 15.7105C67.3716 15.9393 67.5314 16.1562 67.6918 16.3738C68.0138 16.8108 68.3358 17.2491 68.6431 17.6973L69.9122 19.8074C70.0089 19.9686 70.0377 20.1626 69.9912 20.3448C69.9452 20.5277 69.8283 20.6839 69.6667 20.7782L64.2525 23.9489C65.3079 25.8879 66.1527 27.9491 66.7711 30.0951L72.803 28.4592C72.9817 28.4103 73.1733 28.4369 73.3331 28.5324C73.4929 28.6279 73.6086 28.7841 73.6533 28.9669C73.7127 29.2075 73.7751 29.4474 73.8376 29.6873C73.9796 30.2303 74.1259 30.7919 74.2355 31.3665L74.6065 33.7959C74.6279 33.9695 74.6505 34.1207 74.6732 34.2732C74.7112 34.5305 74.7491 34.7883 74.7718 35.0493L74.9536 38.7073L74.773 42.4112C74.7491 42.6914 74.7118 42.9499 74.6732 43.2071C74.6505 43.359 74.6279 43.5102 74.6095 43.6615L74.2398 46.0878C74.1253 46.6847 73.9784 47.2488 73.8363 47.7943C73.7739 48.0336 73.7121 48.2729 73.6527 48.5122C73.6074 48.6944 73.4923 48.8512 73.3325 48.9467C73.1721 49.0422 72.9817 49.0688 72.8023 49.0199L66.1087 47.2048C65.7395 47.105 65.5203 46.7207 65.6195 46.3463C65.7181 45.9725 66.0946 45.7493 66.4674 45.851L72.4865 47.4831C72.4901 47.4683 72.4944 47.4528 72.4981 47.4379C72.634 46.9141 72.7754 46.3723 72.8764 45.8472L73.2382 43.4699C73.2554 43.328 73.2792 43.1637 73.3037 42.9988C73.3374 42.7713 73.3723 42.542 73.3919 42.3114L73.57 38.7086L73.39 35.151C73.3723 34.939 73.3374 34.7109 73.3037 34.4834C73.2792 34.3185 73.2547 34.1542 73.2345 33.9899L72.8709 31.6077C72.7748 31.1056 72.6401 30.5911 72.4981 30.0468C72.4938 30.0307 72.4895 30.0146 72.4858 29.9978L66.4662 31.63C66.2886 31.6777 66.0989 31.6523 65.9403 31.5599C65.7817 31.467 65.6654 31.3138 65.6177 31.1341C64.959 28.6365 63.9813 26.2518 62.7116 24.045C62.6192 23.8844 62.5935 23.6923 62.6412 23.5125C62.6884 23.3321 62.8047 23.179 62.9638 23.0854L68.3597 19.9252L67.4812 18.4629C67.2057 18.0636 66.8923 17.6378 66.58 17.2131C66.4178 16.9925 66.255 16.7718 66.0952 16.5505L65.3765 15.5934C65.1959 15.377 64.9847 15.1433 64.7722 14.9078L63 12.9439L60.9779 11.0756C60.7869 10.9014 60.5953 10.7272 60.4006 10.5611L58.8854 9.40869C58.4496 9.07581 58.0137 8.74355 57.5643 8.4274L56.1557 7.56141L53.0347 13.0251C52.9429 13.1863 52.7917 13.3035 52.6142 13.3518C52.4366 13.3996 52.2475 13.3741 52.0889 13.2812C49.9022 11.998 47.5465 11.0099 45.0867 10.3454C44.9091 10.297 44.7579 10.1798 44.6661 10.0187C44.5743 9.85811 44.5492 9.66657 44.5969 9.4868L46.2082 3.38705C46.2027 3.38519 46.1966 3.38395 46.1911 3.38209C45.6407 3.23704 45.121 3.10066 44.5871 2.99652L42.2363 2.6221C42.0961 2.60474 41.9339 2.58057 41.7711 2.55515C41.5476 2.52106 41.3242 2.48634 41.1001 2.46651L37.5341 2.28612L34.0183 2.46837C33.812 2.48697 33.5849 2.52168 33.3584 2.55639C33.1974 2.58119 33.037 2.60536 32.8766 2.6252L30.5252 3.00024C30.0152 3.10128 29.4661 3.2451 28.9347 3.38519L30.546 9.47874C30.5937 9.65851 30.5686 9.84943 30.4768 10.0112C30.385 10.1718 30.2331 10.2896 30.0562 10.3379C27.6111 10.9987 25.2554 11.9893 23.054 13.2812C22.8948 13.3741 22.7056 13.4002 22.5281 13.3518C22.3506 13.3041 22.1994 13.1863 22.1075 13.0251L18.9866 7.56141L17.5425 8.45034C17.0698 8.78446 16.574 9.16321 16.0811 9.54011L14.7037 10.5859C14.5525 10.716 14.3756 10.8791 14.1987 11.0421L12.0909 12.9886L10.198 15.0962C10.0419 15.2716 9.88578 15.4464 9.73212 15.6268L8.68162 17.0458C8.32717 17.525 7.97208 18.0035 7.64028 18.4945L6.77649 19.9258L12.1711 23.0848C12.3303 23.1778 12.446 23.3309 12.4937 23.5106C12.5409 23.6904 12.5158 23.882 12.4239 24.0431C11.1481 26.2723 10.1705 28.6582 9.51787 31.1335C9.47012 31.3132 9.35441 31.4663 9.19524 31.5593C9.03607 31.6523 8.84752 31.6777 8.66998 31.6294L2.65155 29.9972C2.50769 30.5576 2.37116 31.087 2.2677 31.6319L1.85265 34.365C1.81225 34.6272 1.7706 34.8906 1.75285 35.1572L1.57348 38.7724L1.75346 42.33C1.77122 42.5891 1.81286 42.8532 1.85265 43.116L2.272 45.8733C2.37117 46.3872 2.51381 46.9432 2.65217 47.4819L8.6706 45.8503C8.84752 45.8014 9.03669 45.8268 9.19586 45.9204C9.35503 46.0134 9.47072 46.1665 9.51847 46.3463C10.1711 48.8215 11.1487 51.2075 12.4245 53.4366C12.5164 53.5978 12.5415 53.7893 12.4943 53.9685C12.4472 54.1482 12.3309 54.3013 12.1717 54.3943L6.7777 57.5533L7.66049 59.0156C7.97148 59.4743 8.32533 59.9523 8.67856 60.4296L9.76151 61.8888C9.88517 62.0314 10.0401 62.2056 10.1943 62.3792L12.1356 64.5364L14.1993 66.4376C14.3762 66.6006 14.5531 66.7637 14.735 66.9186L16.042 67.9092C16.5464 68.2948 17.0533 68.6822 17.5743 69.0424L18.9878 69.9171L22.1075 64.4552C22.1994 64.294 22.3506 64.1769 22.5281 64.1285C22.705 64.0802 22.8942 64.1062 23.054 64.1992C25.2554 65.491 27.6117 66.481 30.0562 67.1418C30.2337 67.1902 30.385 67.3073 30.4768 67.4685C30.5686 67.6297 30.5937 67.8212 30.546 68.001L28.9341 74.0945C29.4667 74.2346 30.0158 74.3791 30.5496 74.4844L33.2867 74.9109C33.5371 74.9512 33.7875 74.9915 34.0416 75.0138L37.6014 75.1936L41.124 75.012C41.3468 74.9915 41.5941 74.9512 41.8409 74.9115C41.9761 74.8899 42.1115 74.8681 42.2467 74.8489L44.6116 74.4789C45.1222 74.3784 45.6438 74.2414 46.196 74.0964C46.2003 74.0951 46.2039 74.0945 46.2076 74.0933L44.5963 67.9929C44.5486 67.8131 44.5737 67.6222 44.6655 67.461C44.7573 67.3005 44.9085 67.1827 45.0861 67.1344C47.5446 66.4692 49.9009 65.4817 52.0883 64.1985C52.2475 64.1056 52.4366 64.0795 52.6136 64.1279C52.7911 64.1756 52.9423 64.2934 53.0341 64.4546L56.1538 69.9164L57.598 69.0232C58.0314 68.7213 58.4802 68.3791 58.9307 68.0357L60.4282 66.8951C60.5941 66.7525 60.7857 66.5777 60.9767 66.4041L63.0416 64.4924L64.7765 62.5658C64.9871 62.3321 65.1959 62.1002 65.3961 61.8597L66.1013 60.9193C66.2544 60.7073 66.4178 60.4848 66.5819 60.2628C66.8929 59.8395 67.2057 59.4148 67.5026 58.9815L68.3585 57.5545L62.9626 54.3943C62.632 54.2003 62.5188 53.772 62.7098 53.4366C62.9014 53.1006 63.3244 52.9872 63.6556 53.1806L69.6643 56.6991C69.8253 56.7933 69.9422 56.9495 69.9887 57.1324C70.0352 57.3153 70.0065 57.5087 69.9097 57.6698L68.6633 59.7446C68.3346 60.2263 68.0132 60.6633 67.6924 61.0997C67.5314 61.3185 67.3704 61.5374 67.2118 61.7574L66.4772 62.735C66.2446 63.0164 66.0236 63.2625 65.8007 63.5105L64.0217 65.4823L61.9029 67.4474C61.7009 67.6315 61.4976 67.8162 61.2913 67.9917L59.7633 69.1565C59.2968 69.5123 58.8303 69.8669 58.3504 70.1997L56.2714 71.4873C56.1128 71.5858 55.92 71.615 55.74 71.5685C55.5594 71.522 55.4045 71.4036 55.3109 71.2399L52.1789 65.7563C50.2597 66.8232 48.2235 67.6768 46.1103 68.3004L47.7258 74.4156C47.7736 74.5973 47.7479 74.7907 47.6536 74.9531C47.5587 75.1149 47.4044 75.2314 47.2238 75.2773C46.9967 75.3343 46.7702 75.3938 46.5443 75.4533C45.9952 75.5978 45.4283 75.7472 44.8492 75.86L42.0576 76.2958C41.779 76.3404 41.4999 76.3844 41.2213 76.4092L37.6021 76.5933Z" fill="url(#paint0_linear_163_673)"/>
<path d="M37.5714 49.5176C31.7005 49.5176 26.9242 44.6812 26.9242 38.7364C26.9242 32.7916 31.7005 27.9546 37.5714 27.9546C43.4423 27.9546 48.2192 32.791 48.2192 38.7364C48.2192 44.6812 43.4429 49.5176 37.5714 49.5176ZM37.5714 29.3568C32.4639 29.3568 28.3084 33.5646 28.3084 38.7364C28.3084 43.9082 32.4633 48.116 37.5714 48.116C42.6789 48.116 46.8344 43.9088 46.8344 38.7364C46.8344 33.5646 42.6789 29.3568 37.5714 29.3568Z" fill="url(#paint1_linear_163_673)"/>
<path d="M37.5713 29.358C37.1893 29.358 36.8789 29.0443 36.8789 28.6569V15.5331C36.8789 15.1463 37.1887 14.832 37.5713 14.832C37.9533 14.832 38.2637 15.1457 38.2637 15.5331V28.6575C38.2637 29.0443 37.9539 29.358 37.5713 29.358Z" fill="url(#paint2_linear_163_673)"/>
<path d="M37.5712 58.5279C26.7943 58.5279 18.0265 49.6498 18.0265 38.7378C18.0265 27.8252 26.7943 18.9478 37.5712 18.9478C37.9533 18.9478 38.2636 19.2614 38.2636 19.6489C38.2636 20.0357 37.9539 20.35 37.5712 20.35C27.5577 20.35 19.4113 28.5989 19.4113 38.7385C19.4113 48.878 27.5577 57.127 37.5712 57.127C37.9533 57.127 38.2636 57.4406 38.2636 57.8281C38.2636 58.2142 37.9539 58.5279 37.5712 58.5279Z" fill="url(#paint3_linear_163_673)"/>
<path d="M69.3185 58.0059C69.201 58.0059 69.0822 57.9755 68.9732 57.9117L45.8453 44.3862C45.5141 44.1928 45.4009 43.7639 45.5925 43.4291C45.7829 43.0931 46.2077 42.9785 46.5377 43.1725L69.6656 56.6979C69.9968 56.8914 70.1101 57.3203 69.9184 57.6551C69.7905 57.8801 69.5579 58.0059 69.3185 58.0059Z" fill="url(#paint4_linear_163_673)"/>
<path d="M53.8537 48.9608C53.7362 48.9608 53.6168 48.9304 53.5072 48.8666C53.1766 48.6726 53.064 48.2436 53.2556 47.9089C54.8467 45.128 55.6879 41.9492 55.6879 38.7158C55.6879 33.7567 53.7656 29.1087 50.2761 25.6287C50.0037 25.3572 50 24.9133 50.2687 24.6375C50.5375 24.3616 50.9758 24.3579 51.2476 24.63C55.004 28.3754 57.0726 33.3779 57.0726 38.7158C57.0726 42.1959 56.1672 45.6177 54.4537 48.6118C54.3245 48.8356 54.0925 48.9608 53.8537 48.9608Z" fill="url(#paint5_linear_163_673)"/>
<path d="M40.8692 13.7056C40.8692 15.5498 39.3926 17.0449 37.5713 17.0449C35.75 17.0449 34.2734 15.5498 34.2734 13.7056C34.2734 11.8614 35.75 10.3662 37.5713 10.3662C39.3926 10.3662 40.8692 11.8614 40.8692 13.7056Z" fill="url(#paint6_linear_163_673)"/>
<path d="M54.0589 24.8565C54.0589 26.7006 52.5823 28.1958 50.761 28.1958C48.9397 28.1958 47.4631 26.7006 47.4631 24.8565C47.4631 23.0123 48.9397 21.5171 50.761 21.5171C52.5823 21.5171 54.0589 23.0123 54.0589 24.8565Z" fill="url(#paint7_linear_163_673)"/>
<path d="M40.8692 58.0039C40.8692 59.8481 39.3926 61.3433 37.5713 61.3433C35.75 61.3433 34.2734 59.8481 34.2734 58.0039C34.2734 56.1597 35.75 54.6646 37.5713 54.6646C39.3926 54.6646 40.8692 56.1597 40.8692 58.0039Z" fill="url(#paint8_linear_163_673)"/>
<defs>
<linearGradient id="paint0_linear_163_673" x1="42.4929" y1="-28.5344" x2="33.0153" y2="97.8231" gradientUnits="userSpaceOnUse">
<stop offset="0.0028" stop-color="#17D1E5"/>
<stop offset="1" stop-color="#5734EA"/>
</linearGradient>
<linearGradient id="paint1_linear_163_673" x1="42.4929" y1="-28.5356" x2="33.0154" y2="97.8213" gradientUnits="userSpaceOnUse">
<stop offset="0.0028" stop-color="#17D1E5"/>
<stop offset="1" stop-color="#5734EA"/>
</linearGradient>
<linearGradient id="paint2_linear_163_673" x1="41.2818" y1="-28.6252" x2="31.8042" y2="97.7316" gradientUnits="userSpaceOnUse">
<stop offset="0.0028" stop-color="#17D1E5"/>
<stop offset="1" stop-color="#5734EA"/>
</linearGradient>
<linearGradient id="paint3_linear_163_673" x1="33.7863" y1="-29.188" x2="24.3088" y2="97.1692" gradientUnits="userSpaceOnUse">
<stop offset="0.0028" stop-color="#17D1E5"/>
<stop offset="1" stop-color="#5734EA"/>
</linearGradient>
<linearGradient id="paint4_linear_163_673" x1="63.4255" y1="-26.9642" x2="53.9479" y2="99.3929" gradientUnits="userSpaceOnUse">
<stop offset="0.0028" stop-color="#17D1E5"/>
<stop offset="1" stop-color="#5734EA"/>
</linearGradient>
<linearGradient id="paint5_linear_163_673" x1="57.9343" y1="-27.3768" x2="48.4567" y2="98.9802" gradientUnits="userSpaceOnUse">
<stop offset="0.0028" stop-color="#17D1E5"/>
<stop offset="1" stop-color="#5734EA"/>
</linearGradient>
<linearGradient id="paint6_linear_163_673" x1="40.6716" y1="-28.6711" x2="31.194" y2="97.6856" gradientUnits="userSpaceOnUse">
<stop offset="0.0028" stop-color="#17D1E5"/>
<stop offset="1" stop-color="#5734EA"/>
</linearGradient>
<linearGradient id="paint7_linear_163_673" x1="54.6007" y1="-27.6278" x2="45.1231" y2="98.7301" gradientUnits="userSpaceOnUse">
<stop offset="0.0028" stop-color="#17D1E5"/>
<stop offset="1" stop-color="#5734EA"/>
</linearGradient>
<linearGradient id="paint8_linear_163_673" x1="43.8945" y1="-28.4299" x2="34.417" y2="97.9268" gradientUnits="userSpaceOnUse">
<stop offset="0.0028" stop-color="#17D1E5"/>
<stop offset="1" stop-color="#5734EA"/>
</linearGradient>
</defs>
</svg>
